<?xml  version="1.0" encoding="UTF-8"?>
<!DOCTYPE svg PUBLIC "-//W3C//DTD SVG 1.0//EN" "http://www.w3.org/TR/2001/REC-SVG-20010904/DTD/svg10.dtd" >
<svg xmlns="http://www.w3.org/2000/svg" >
<metadata>
<version>1.0</version>
<id><![CDATA[Didot W01 Bold]]></id>
<vendor>Monotype Imaging Inc.</vendor>
<credits>
<name>Fonts.com WebFonts</name>
<URL>http://webfonts.fonts.com</URL>
<role>Home of the Web fonts</role>
</credits>
<license>
<URL>http://webfonts.fonts.com/Legal</URL>
</license>
<copyright><![CDATA[Part of the digitally encoded machine readable outline data for producing the Typefaces provided is copyrighted © 2008 Linotype GmbH, www.linotype.com. All rights reserved. This software is the property of Linotype GmbH, and may not be reproduced, used, displayed, modified, disclosed or transferred without the express written approval of Linotype GmbH.  The digitally encoded machine readable software for producing the Typefaces licensed to you is copyrighted (c) 1992 Adobe Systems. All Rights Reserved. This software is the property of Adobe Systems Incorporated and its licensors, and may not be reproduced, used, displayed, modified, disclosed or transferred without the express written approval of Adobe. Linotype Didot is a trademark of Linotype GmbH and may be registered in certain jurisdictions. This typeface is original artwork of Adrian Frutiger and Linotype Design Studio. The design may be protected in certain jurisdictions.]]></copyright>
<trademark><![CDATA[Linotype Didot is a trademark of Linotype GmbH and may be registered in certain jurisdictions.]]></trademark>
<licensee>
<name></name>
</licensee>
</metadata>
<defs >
<font horiz-adv-x="549" id="d62df477-3d45-4345-95a9-eac5dcd4b116">
<font-face font-family="" panose-1="0 0 8 0 0 0 0 0 0 0" ascent="969" descent="-295" units-per-em="1000" alphabetic="0">
</font-face>
<missing-glyph horiz-adv-x="278" />

<glyph unicode="&#xA;" />
<glyph unicode="&#xD;" horiz-adv-x="0" />
<glyph unicode=" " horiz-adv-x="278" />
<glyph unicode="!" horiz-adv-x="296" d="M90 598Q87 623 85 638T83 660Q83 690 101 709T148 728Q177 728 195 709T213 660Q213 653 211 638T206 598L158 201H138L90 598ZM77 61Q77 90 98 111T148 132Q177 132 198 111T219 61Q219 32 198 11T148 -10Q119 -10 98 11T77 61Z"  />
<glyph unicode="&quot;" horiz-adv-x="370" d="M224 637Q222 648 221 658T220 679Q220 708 232 718T259 728Q273 728 285 718T298 679Q298 669 297 659T294 637L268 424H250L224 637ZM76 637Q74 648 73 658T72 679Q72 708 84 718T111 728Q125 728 137 718T150 679Q150 669 149 659T146 637L120 424H102L76 637Z"  />
<glyph unicode="#" horiz-adv-x="556" d="M129 237H-4L3 255H136L208 453H75L82 471H215L302 712H323L236 471H405L492 712H513L426 471H559L552 453H419L347 255H480L473 237H340L254 0H233L319 237H150L64 0H43L129 237ZM326 255L398 453H229L157 255H326Z"  />
<glyph unicode="$" horiz-adv-x="630" d="M56 222H70Q72 210 77 191T92 149T116 103T151 59Q172 38 192 26T230 8T265 1T296 -1V306Q255 318 215 333T142 372T90 432T70 522Q70 560 86 596T133 660T204 707T296 728V787H313V728Q346 728 370 722T413 709T446 697T473 691Q487 691 491 695T501 712H518V522H504Q492 556 479 590T445 651T393 696T313 714V455Q358 441 404 426T488 386T550 324T574 228Q574 181 555 138T502 62T420 9T313 -15V-85H296V-15Q266 -15 236 -9T179 4T132 17T102 23Q88 23 82 19T71 0H56V222ZM296 714Q260 712 232 700T184 671T155 632T145 589Q145 562 156 542T188 506T236 479T296 459V714ZM313 -1Q363 0 396 17T448 59T474 109T482 154Q482 188 469 211T432 252T378 280T313 302V-1Z"  />
<glyph unicode="%" horiz-adv-x="778" d="M567 728L587 719L211 -14L191 -5L567 728ZM217 406Q185 406 154 418T99 451T60 502T45 567Q45 602 60 631T99 682T154 716T217 728Q249 728 280 716T335 683T374 632T389 567Q389 532 374 503T335 452T280 418T217 406ZM217 420Q245 420 260 431T283 461T292 508T293 567Q293 599 292 626T284 672T261 703T217 714Q188 714 173 703T151 673T142 626T141 567Q141 535 142 508T150 462T173 431T217 420ZM389 147Q389 182 404 211T443 262T498 296T561 308Q593 308 624 296T679 263T718 212T733 147Q733 112 718 83T679 32T624 -2T561 -14Q529 -14 498 -2T443 31T404 82T389 147ZM485 147Q485 115 486 88T494 42T517 11T561 0Q589 0 604 11T627 41T636 88T637 147Q637 179 636 206T628 252T605 283T561 294Q532 294 517 283T495 253T486 206T485 147Z"  />
<glyph unicode="&amp;" horiz-adv-x="796" d="M73 204Q73 250 91 287T138 353T201 405T267 449Q251 491 243 516T235 568Q235 599 247 627T281 678T329 714T384 728Q403 728 420 723T450 705T470 674T478 626Q478 611 475 595T462 563T435 529T391 493L559 164Q573 184 588 233T603 359Q603 401 597 426T577 466T545 485T499 490V504H701V490Q678 486 663 482T639 465T625 429T618 362Q617 342 615 315T608 258T592 199T567 148L613 67Q617 60 627 49T655 38Q670 38 679 48T693 71T700 96T702 112Q702 117 702 121T699 130H713Q714 128 715 124T716 114Q716 110 714 90T700 46T661 4T586 -15Q564 -15 548 -10T519 3T496 22T476 45Q461 33 447 23T414 4T371 -10T315 -15Q239 -15 192 9T119 69T83 141T73 204ZM385 505Q395 512 409 522T435 546T456 580T465 624Q465 640 461 656T449 685T429 706T398 714Q395 714 385 713T363 706T342 685T333 644Q333 629 337 612T349 576T366 539T385 505ZM189 308Q189 290 196 261T215 198T245 132T283 73T327 29T375 12Q402 12 423 24T470 57Q460 71 455 80T444 101L294 392Q287 406 281 419T272 438Q251 422 236 409T210 382T194 350T189 308Z"  />
<glyph unicode="&apos;" horiz-adv-x="278" d="M104 637Q102 648 101 658T100 679Q100 708 112 718T139 728Q153 728 165 718T178 679Q178 669 177 659T174 637L148 424H130L104 637Z"  />
<glyph unicode="(" horiz-adv-x="259" d="M71 216Q71 325 93 413T142 567T195 670T227 718L243 708Q160 587 126 466T91 216Q91 88 125 -33T243 -276L227 -286Q220 -277 195 -239T143 -135T93 18T71 216Z"  />
<glyph unicode=")" horiz-adv-x="259" d="M168 216Q168 344 134 465T16 708L32 718Q39 709 64 671T116 567T166 414T188 216Q188 107 166 19T117 -135T64 -238T32 -286L16 -276Q99 -155 133 -34T168 216Z"  />
<glyph unicode="*" horiz-adv-x="482" d="M241 302Q220 302 204 316T188 351Q188 356 188 360T191 372T198 391T211 422Q220 443 224 455T232 476T236 492T238 511Q215 489 200 474T174 443Q161 424 152 412T134 393T119 384T102 381Q78 381 63 397T47 434Q47 452 54 463T74 479T101 487T132 492Q164 495 187 500T236 513Q221 519 204 523T169 531T136 537T108 540Q74 544 61 559T48 595Q48 619 65 634T99 649Q121 649 134 638T161 609T192 567T239 519Q237 530 236 537T232 553T225 574T211 608Q203 627 199 638T192 657T189 669T188 679Q188 699 204 713T241 728Q262 728 278 714T294 679Q294 674 294 670T291 658T284 639T271 608Q262 587 258 575T250 554T246 538T243 519Q273 543 290 566T320 608T347 638T383 649Q400 649 417 634T434 595Q434 575 421 560T374 540Q362 539 346 537T313 532T278 525T245 515V513Q270 506 293 501T349 492Q365 490 380 488T407 480T426 463T434 434Q434 413 419 397T379 381Q370 381 363 383T347 393T330 412T307 443Q296 458 281 473T243 511Q244 500 245 493T250 477T257 456T271 422Q279 403 283 392T290 373T293 361T294 351Q294 331 278 317T241 302Z"  />
<glyph unicode="+" horiz-adv-x="650" d="M76 296H294V508H356V296H574V238H356V24H294V238H76V296Z"  />
<glyph unicode="&#x2c;" horiz-adv-x="278" d="M55 61Q55 80 62 93T80 115T104 128T131 132Q169 132 196 101T223 13Q223 -26 209 -56T174 -109T127 -150T81 -181L74 -168Q123 -134 152 -106T181 -41Q181 -25 176 -15T166 0Q157 -6 146 -8T124 -10Q113 -10 101 -6T79 6T62 28T55 61Z"  />
<glyph unicode="-" horiz-adv-x="370" d="M91 264H279V166H91V264Z"  />
<glyph unicode="." horiz-adv-x="278" d="M68 61Q68 90 89 111T139 132Q168 132 189 111T210 61Q210 32 189 11T139 -10Q110 -10 89 11T68 61Z"  />
<glyph unicode="/" horiz-adv-x="296" d="M273 718L293 712L23 -6L3 0L273 718Z"  />
<glyph unicode="0" horiz-adv-x="556" d="M278 -14Q217 -14 175 8T106 65T65 143T43 227T35 303T34 357Q34 381 37 417T48 495T73 578T117 653T183 707T278 728Q339 728 381 706T450 649T491 571T513 487T521 411T522 357Q522 333 519 297T508 219T483 136T439 61T373 7T278 -14ZM278 0Q317 0 338 20T371 84T384 194T387 357Q387 456 385 524T371 634T339 695T278 714Q239 714 218 694T185 630T172 519T169 357Q169 262 171 195T185 84T217 21T278 0Z"  />
<glyph unicode="1" horiz-adv-x="556" d="M142 14H236V637Q203 619 170 600T105 563L97 576Q133 597 161 612T214 644T263 680T318 728H358V14H450V0H142V14Z"  />
<glyph unicode="2" horiz-adv-x="556" d="M30 14L36 19Q123 102 181 161T275 275T325 388T340 530Q340 570 337 604T325 662T299 700T252 714Q238 714 224 711T197 700T178 676T170 636Q170 633 171 625T173 608T175 591T176 580Q176 555 159 546T119 536Q112 536 102 537T82 542T65 557T58 587Q58 604 69 628T105 675T169 712T265 728Q321 728 361 712T426 668T463 606T475 534Q475 518 471 496T455 447T423 389T369 324L297 250L149 104H369Q376 104 392 105T425 116T456 146T472 205H486V0H30V14Z"  />
<glyph unicode="3" horiz-adv-x="556" d="M36 147Q39 128 50 103T82 55T135 16T213 0Q262 0 291 18T337 66T358 135T363 218Q363 246 361 277T347 336T309 380T233 398Q200 398 171 387T113 358L105 372Q138 393 168 401T235 417Q247 420 266 426T303 449T334 499T347 588Q347 601 346 622T335 664T307 699T251 714Q223 714 202 702T181 659Q181 655 182 647T184 628T187 610T189 598Q189 580 183 571T167 557T146 552T126 551Q107 551 89 561T71 599Q71 659 124 693T267 728Q332 728 373 712T437 673T468 625T477 581Q477 542 460 515T413 468T344 435T260 411V409Q306 401 349 387T425 350T478 292T498 208Q498 172 482 133T433 61T349 7T227 -14Q189 -14 156 -6T96 20T50 68T20 142L36 147Z"  />
<glyph unicode="4" horiz-adv-x="556" d="M31 159Q41 190 64 246T118 369T182 501T247 620Q271 660 289 682T322 714T350 726T378 728Q387 728 397 727T415 723T429 713T435 696Q435 685 429 678T414 662Q396 647 368 619T307 552T237 468T167 373T102 272T50 173H314V429H436V173H525V159H436V14H525V0H226V14H314V159H31H31Z"  />
<glyph unicode="5" horiz-adv-x="556" d="M46 97Q46 118 53 129T71 145T92 152T107 153Q145 153 156 140T168 109Q168 106 167 100T166 86T164 72T163 62Q163 43 169 31T185 12T204 3T223 0Q243 0 265 4T306 29T337 96T350 226Q350 292 341 331T315 392T277 419T230 426Q197 426 174 413T135 382T109 344T91 308H78L145 721H175Q182 714 198 702T236 677T286 657T345 648Q352 648 366 649T398 657T435 678T473 718L486 712Q453 665 429 634T385 585T343 558T292 550Q275 550 255 554T214 566T174 580T140 594L104 375L106 373Q118 388 130 400T159 422T199 437T255 443Q302 443 343 428T416 386T466 320T485 234Q485 193 468 149T418 69T337 10T228 -14Q189 -14 156 -5T98 19T60 55T46 97Z"  />
<glyph unicode="6" horiz-adv-x="556" d="M285 -14Q232 -14 186 7T105 68T52 166T32 300Q32 385 56 462T123 599T224 693T351 728Q378 728 404 722T450 702T483 668T496 618Q496 559 436 559Q401 559 389 571T377 603Q377 621 385 639T394 672Q394 675 393 682T387 696T372 708T346 714Q310 714 284 697T238 653T207 589T186 516T173 442T165 375L167 373Q174 382 183 393T208 415T244 431T296 438Q342 438 383 421T455 373T505 301T524 213Q524 166 504 125T450 53T373 4T285 -14ZM281 0Q304 0 323 6T357 35T380 104T389 231Q389 326 367 375T289 424Q269 424 242 416T191 378Q184 369 179 360T171 337T166 304T164 254Q164 162 175 111T204 36T242 6T281 0Z"  />
<glyph unicode="7" horiz-adv-x="556" d="M119 26Q119 40 124 49T139 68L226 149Q281 200 322 261T393 382T440 497T465 590H154Q136 590 124 583T104 564T92 539T87 514H73V712H495Q495 683 489 638T469 537T437 419T392 296Q359 214 333 155T284 59T237 4T185 -14Q161 -14 140 -6T119 26Z"  />
<glyph unicode="8" horiz-adv-x="556" d="M39 171Q39 210 51 238T86 287T136 325T198 358Q171 373 148 388T107 423T79 471T68 537Q68 579 85 614T132 675T202 714T290 728Q329 728 363 717T422 685T463 637T478 577Q478 528 446 490T344 420Q425 383 467 336T509 218Q509 179 492 138T443 63T366 8T266 -14Q220 -14 179 0T107 38T58 97T39 171ZM331 427Q338 433 345 441T359 464T370 506T374 576Q374 589 372 612T361 658T333 697T278 714Q252 714 231 705T195 679T172 640T163 593Q163 560 175 536T209 494T262 460T331 427ZM148 175Q148 125 157 92T181 38T218 9T266 0Q307 0 334 15T376 52T398 101T405 150Q405 181 398 204T378 246T344 278T298 306L213 351Q190 337 177 316T158 270T150 221T148 175Z"  />
<glyph unicode="9" horiz-adv-x="556" d="M61 93Q61 125 78 140T127 155Q135 155 144 154T161 149T174 136T179 114Q179 108 177 99T173 79T169 60T167 45Q167 28 173 19T188 6T209 1T229 0Q275 0 304 26T351 97T374 205T380 341H378Q372 332 363 321T340 299T304 283T252 276Q206 276 165 293T93 341T43 413T24 501Q24 547 44 588T98 661T175 710T263 728Q316 728 362 707T443 646T496 548T516 414Q516 327 500 249T448 113T358 20T226 -14Q175 -14 143 -3T92 25T68 60T61 93ZM259 290Q304 290 335 314T376 381Q378 390 379 412T381 460Q381 551 370 602T342 678T305 708T267 714Q246 714 227 707T192 675T168 605T159 483Q159 379 183 335T259 290Z"  />
<glyph unicode=":" horiz-adv-x="278" d="M139 301Q110 301 89 322T68 372Q68 401 89 422T139 443Q168 443 189 422T210 372Q210 343 189 322T139 301ZM68 61Q68 90 89 111T139 132Q168 132 189 111T210 61Q210 32 189 11T139 -10Q110 -10 89 11T68 61Z"  />
<glyph unicode=";" horiz-adv-x="278" d="M139 301Q110 301 89 322T68 372Q68 401 89 422T139 443Q168 443 189 422T210 372Q210 343 189 322T139 301ZM55 61Q55 80 62 93T80 115T104 128T131 132Q169 132 196 101T223 13Q223 -26 209 -56T174 -109T127 -150T81 -181L74 -168Q123 -134 152 -106T181 -41Q181 -25 176 -15T166 0Q157 -6 146 -8T124 -10Q113 -10 101 -6T79 6T62 28T55 61Z"  />
<glyph unicode="&lt;" horiz-adv-x="593" d="M12 244L580 480V460L45 240L580 20V0L12 236V244Z"  />
<glyph unicode="=" horiz-adv-x="593" d="M56 335H536V317H56V335ZM56 163H536V145H56V163Z"  />
<glyph unicode="&gt;" horiz-adv-x="593" d="M12 20L548 240L12 460V480L580 244V236L12 0V20Z"  />
<glyph unicode="?" horiz-adv-x="444" d="M123 427H140Q152 409 167 395T204 380Q243 380 256 426T269 560Q269 604 266 633T256 681T237 706T207 714Q180 714 168 702T155 676Q155 667 158 661T165 649T172 636T176 618Q176 592 163 583T121 573Q101 573 84 583T67 620Q67 648 80 668T114 702T160 721T211 728Q255 728 289 714T345 674T379 616T391 546Q391 496 372 461T326 404T270 373T222 363Q187 363 169 374T142 397H140V192H123V427ZM60 61Q60 90 81 111T131 132Q160 132 181 111T202 61Q202 32 181 11T131 -10Q102 -10 81 11T60 61Z"  />
<glyph unicode="@" horiz-adv-x="833" d="M43 338Q43 419 76 490T165 614T297 697T459 728Q534 728 595 706T699 643T766 550T790 434Q790 381 773 331T728 243T663 181T589 157Q559 157 542 167T516 192T505 222T501 246Q495 235 486 220T461 190T425 167T374 157Q357 157 333 163T288 184T251 227T235 296Q235 346 255 390T307 467T378 519T457 539Q485 539 503 531T531 510T545 486T552 465L570 528H655L587 295Q584 284 581 270T578 242Q578 222 589 210T622 198Q646 198 672 217T719 268T755 343T769 432Q769 487 749 537T689 625T592 685T462 708Q377 708 307 676T187 592T110 473T82 336Q82 266 108 206T180 102T292 32T435 6Q497 6 567 28T704 101L717 84Q654 36 581 11T429 -14Q349 -14 279 11T157 83T74 194T43 338ZM324 277Q324 269 325 254T332 223T352 195T391 183Q410 183 425 190T452 211T473 241T490 277Q496 291 503 313T518 360T529 406T534 444Q534 465 528 478T512 500T491 511T470 514Q440 514 413 493T367 437T336 361T324 277Z"  />
<glyph unicode="A" horiz-adv-x="759" d="M-26 14H59L357 740H384L699 14H785V0H449V14H542L426 282H186L75 14H164V0H-26V14ZM421 296L303 569L191 296H421Z"  />
<glyph unicode="B" horiz-adv-x="685" d="M35 14H127V698H35V712H186Q228 712 269 713T352 715Q391 715 434 707T512 680T571 629T594 549Q594 506 572 477T517 428T451 399T392 386V382Q431 379 473 369T550 338T608 281T631 193Q631 135 602 97T530 37T439 6T353 -3Q311 -3 270 -2T186 0H35V14ZM313 389Q358 389 384 401T423 433T439 480T443 533Q443 577 437 608T417 660T378 691T316 701Q305 701 294 700T272 698V389H313ZM272 14Q299 11 330 11Q362 11 387 18T431 47T458 105T468 204Q468 220 465 249T449 306T407 354T330 375H272V14Z"  />
<glyph unicode="C" horiz-adv-x="722" d="M51 354Q51 439 85 508T174 626T294 701T425 728Q456 728 484 722T535 710T577 697T610 691Q624 691 631 694T641 712H657V508H644Q633 541 618 577T578 644T517 694T426 714Q353 714 311 687T248 612T220 498T214 352Q214 248 226 180T263 72T329 16T426 -1Q471 -1 507 17T572 65T619 133T647 212H663V0H647Q642 12 635 16T614 21Q602 21 583 16T540 3T486 -9T425 -15Q351 -15 284 13T165 92T82 209T51 354Z"  />
<glyph unicode="D" horiz-adv-x="815" d="M32 14H124V698H32V712H124Q175 712 226 713T328 715Q373 715 423 709T522 688T615 646T693 580T747 485T767 356Q767 283 747 228T694 133T617 67T528 26T435 4T351 -3Q294 -3 238 -2T124 0H32V14ZM269 14Q297 11 322 11Q387 11 433 26T510 68T560 129T588 200T601 275T604 346Q604 427 594 492T555 604T472 676T331 701Q311 701 295 701T269 698V14Z"  />
<glyph unicode="E" horiz-adv-x="722" d="M37 14H129V698H37V712H635V541H622Q617 557 605 584T572 636T516 679T433 698H274V389H330Q367 389 392 399T435 429T463 476T481 538H494V227H481Q474 256 465 283T439 330T399 363T341 375H274V14H438Q484 14 521 29T586 73T634 138T663 219H676V0H37V14Z"  />
<glyph unicode="F" horiz-adv-x="685" d="M37 14H129V698H37V712H628V541H615Q601 577 585 606T546 655T495 687T425 698H274V376H330Q367 376 392 386T435 416T463 463T481 525H494V214H481Q474 243 465 270T439 317T399 350T341 362H274V14H367V0H37V14Z"  />
<glyph unicode="G" horiz-adv-x="778" d="M47 354Q47 439 81 508T170 626T290 701T421 728Q451 728 479 722T531 710T574 697T606 691Q620 691 626 695T637 712H654V508H639Q613 606 561 660T422 714Q366 714 329 697T268 651T232 582T215 500T210 411T210 324Q210 233 222 171T259 71T325 16T422 -1Q468 -1 495 15T536 61T554 129T559 214V252H456V266H765V252H700V23H682Q680 35 671 40T649 46Q625 46 604 37T557 16T500 -5T421 -15Q347 -15 280 13T161 92T78 209T47 354Z"  />
<glyph unicode="H" horiz-adv-x="833" d="M35 14H127V698H35V712H364V698H272V370H561V698H469V712H798V698H706V14H798V0H469V14H561V356H272V14H364V0H35V14Z"  />
<glyph unicode="I" horiz-adv-x="407" d="M39 14H131V698H39V712H368V698H276V14H368V0H39V14Z"  />
<glyph unicode="J" horiz-adv-x="500" d="M22 93Q22 97 23 109T31 133T55 154T101 164Q109 164 119 163T139 156T155 142T162 116Q162 109 160 98T155 75T150 53T148 39Q148 24 153 16T166 4T180 0T192 -1Q208 -1 217 6T230 23T234 44T235 65V698H143V712H472V698H380V204Q380 180 377 143T354 70T295 10T180 -15Q154 -15 126 -10T75 7T37 40T22 93Z"  />
<glyph unicode="K" horiz-adv-x="778" d="M42 14H134V698H42V712H371V698H279V378H287L593 698H492V712H692V698H612L389 464L735 14H797V0H463V14H553L287 364H279V14H371V0H42V14Z"  />
<glyph unicode="L" horiz-adv-x="722" d="M46 14H138V698H46V712H375V698H283V14H448Q481 14 514 25T577 61T630 127T667 226H680V0H46V14Z"  />
<glyph unicode="M" horiz-adv-x="926" d="M34 14H126V698H34V712H291L464 214H466L642 712H892V698H800V14H892V0H564V14H655V698H653L407 0H391L144 698H142V14H234V0H34V14Z"  />
<glyph unicode="N" horiz-adv-x="741" d="M34 14H126V698H34V712H270L603 236H605V698H513V712H713V698H621V0H594L144 641H142V14H234V0H34V14Z"  />
<glyph unicode="O" horiz-adv-x="833" d="M42 354Q42 439 76 508T165 626T285 701T417 728Q486 728 553 702T673 628T758 511T791 357Q791 282 761 215T679 96T560 15T417 -15Q343 -15 275 13T156 92T73 209T42 354ZM205 354Q205 250 217 182T254 73T320 16T417 -1Q491 -1 533 26T596 103T622 218T628 363Q628 433 624 496T598 608T535 685T417 714Q347 714 305 688T241 613T212 499T205 354Z"  />
<glyph unicode="P" horiz-adv-x="648" d="M271 14H363V0H34V14H126V698H34V712H126Q177 712 228 713T330 715Q375 715 427 708T523 680T596 623T626 528Q626 489 607 455T549 395T451 354T312 339H271V14ZM271 353H302Q387 353 425 391T463 522Q463 609 430 655T310 701Q299 701 289 700T271 698V353Z"  />
<glyph unicode="Q" horiz-adv-x="833" d="M735 -214Q653 -210 602 -204T518 -185T462 -149T418 -87Q404 -64 388 -44T359 -9Q294 1 237 33T136 113T67 223T42 354Q42 439 76 508T165 626T285 701T417 728Q486 728 553 702T673 628T758 511T791 357Q791 282 761 215T679 96T560 15T417 -15Q398 -15 383 -12Q393 -23 403 -29T426 -41T460 -49T512 -55Q562 -60 587 -83T632 -140Q642 -158 649 -169T667 -188T693 -197T735 -200V-214ZM205 354Q205 250 217 182T254 73T320 16T417 -1Q491 -1 533 26T596 103T622 218T628 363Q628 433 624 496T598 608T535 685T417 714Q347 714 305 688T241 613T212 499T205 354Z"  />
<glyph unicode="R" horiz-adv-x="722" d="M127 698H35V712H186Q228 712 269 713T352 715Q391 715 434 707T514 680T573 627T597 544Q597 504 579 476T533 429T469 402T400 389V384Q449 375 487 366T554 339T598 289T619 203Q624 140 627 102T635 43T650 15T678 8Q698 8 711 19T734 41L744 32Q734 22 725 14T703 -1T672 -11T627 -15Q572 -15 541 2T495 46T477 104T472 161Q470 202 467 240T450 309T411 357T338 375H272V14H364V0H35V14H127V698ZM272 389H313Q358 389 384 401T423 433T439 480T443 533Q443 577 437 608T417 660T378 691T316 701Q305 701 294 700T272 698V389Z"  />
<glyph unicode="S" horiz-adv-x="648" d="M63 222H78Q80 210 85 191T100 149T124 103T159 59Q182 36 203 24T244 7T281 0T314 -1Q366 -1 400 16T454 57T482 107T490 154Q490 191 473 215T426 255T360 282T284 305T208 332T142 371T96 432T78 522Q78 562 96 599T146 664T222 710T319 728Q352 728 377 722T421 710T454 697T481 691Q495 691 499 695T509 712H525V522H512Q500 556 487 590T452 652T399 697T318 714Q278 714 248 703T196 674T164 634T153 589Q153 554 171 531T220 492T288 463T367 439T446 410T515 370T563 312T582 228Q582 179 562 135T506 58T418 5T306 -15Q275 -15 245 -9T188 4T141 17T110 23Q96 23 90 19T79 0H63V222Z"  />
<glyph unicode="T" horiz-adv-x="705" d="M280 698H244Q207 698 178 691T126 665T85 613T52 529H39V712H666V529H653Q638 580 621 613T580 664T527 690T461 698H425V14H517V0H188V14H280V698Z"  />
<glyph unicode="U" horiz-adv-x="778" d="M32 712H362V698H270V249Q270 202 274 158T295 78T344 21T432 -1Q486 -1 522 12T583 45T620 91T639 142T646 190T647 228V698H556V712H756V698H663V229Q663 213 662 189T654 137T633 83T592 34T524 -1T423 -15Q325 -15 267 6T177 63T135 142T125 231V698H32V712Z"  />
<glyph unicode="V" horiz-adv-x="722" d="M-18 712H317V698H221L428 156L639 698H549V712H740V698H654L372 -28H343L67 698H-18V712Z"  />
<glyph unicode="W" horiz-adv-x="1037" d="M-12 712H295V698H222L402 171H404L509 469L431 698H377V712H676V698H583L764 170H766L951 698H865V712H1049V698H968L711 -28H682L518 446H516L348 -28H319L71 698H-12V712Z"  />
<glyph unicode="X" horiz-adv-x="759" d="M10 712H345V698H263L409 450L565 698H479V712H660V698H582L418 436L676 14H759V0H416V14H505L323 315L137 14H227V0H37V14H119L314 330L90 698H10V712Z"  />
<glyph unicode="Y" horiz-adv-x="704" d="M-16 712H307V698H228L432 349L616 698H529V712H720V698H633L440 331V14H533V0H203V14H295V293L63 698H-16V712Z"  />
<glyph unicode="Z" horiz-adv-x="685" d="M436 698H297Q256 698 227 687T175 656T135 608T103 545H90V712H608L204 14H385Q424 14 461 25T530 61T585 127T622 226H635V0H34L436 698Z"  />
<glyph unicode="[" horiz-adv-x="259" d="M97 712H219V692H117V-260H219V-280H97V712Z"  />
<glyph unicode="\" horiz-adv-x="296" d="M293 0L273 -6L3 712L23 718L293 0Z"  />
<glyph unicode="]" horiz-adv-x="259" d="M162 -280H40V-260H142V692H40V712H162V-280Z"  />
<glyph unicode="^" horiz-adv-x="593" d="M292 712H301L473 305H452L296 674L141 305H119L292 712Z"  />
<glyph unicode="_" horiz-adv-x="500" d="M0 -75H500V-106H0V-75Z"  />
<glyph unicode="`" horiz-adv-x="278" d="M182 529H169L28 679Q22 686 21 694T19 706Q19 721 31 728T52 736Q72 736 80 726T94 705L182 529Z"  />
<glyph unicode="a" horiz-adv-x="519" d="M507 16Q500 5 490 -1T467 -10T442 -13T417 -14Q366 -14 342 4T311 55H309Q301 35 291 22T265 0T231 -11T184 -14Q160 -14 135 -9T89 7T55 38T42 86Q42 115 53 134T83 167T125 189T174 206Q214 218 240 227T280 245T299 266T305 297V358Q305 371 302 384T292 407T273 423T243 429Q220 429 203 419T186 380Q186 377 187 370T189 353T191 336T192 325Q192 310 185 302T168 289T148 285T131 284Q121 284 111 285T92 292T79 308T73 335Q73 361 87 381T126 415T180 436T244 443Q282 443 315 437T373 415T412 372T427 302V54Q427 35 432 21T460 6Q473 6 481 11T498 25L507 16ZM305 248H303Q301 242 296 237T276 224Q257 215 238 207T204 185T180 153T170 104Q170 92 171 76T179 45T199 20T235 9Q248 9 260 14T283 33T299 66T305 116V248Z"  />
<glyph unicode="b" horiz-adv-x="593" d="M97 707H31V721H219V359H221Q236 400 264 421T337 443Q395 443 436 421T503 364T542 290T555 215Q555 170 539 129T495 56T426 5T337 -14Q293 -14 264 9T219 74H217V0H31V14H97V707ZM219 214Q219 182 221 145T236 76T271 22T337 0Q365 0 381 15T406 58T417 125T420 214Q420 274 416 315T400 382T372 418T329 429Q292 429 270 408T237 355T223 285T219 214Z"  />
<glyph unicode="c" horiz-adv-x="481" d="M35 215Q35 252 51 292T98 365T175 421T281 443Q318 443 349 435T403 413T438 378T451 332Q451 299 434 286T386 272Q363 272 344 280T324 316Q324 320 326 330T331 351T336 372T339 386Q339 406 322 417T278 429Q242 429 221 412T189 367T174 301T170 221Q170 182 173 143T189 72T226 20T295 0Q336 0 364 14T409 48T435 87T445 116L459 111Q454 94 444 72T413 31T361 -1T282 -14Q269 -14 246 -11T195 0T139 24T88 65T50 127T35 215Z"  />
<glyph unicode="d" horiz-adv-x="593" d="M496 14H562V0H376V74H374Q358 33 329 10T256 -14Q207 -14 167 5T99 56T54 129T38 215Q38 250 50 290T89 364T157 420T256 443Q301 443 329 422T372 359H374V707H306V721H496V14ZM374 214Q374 247 371 285T356 355T323 408T264 429Q238 429 221 418T193 382T178 316T173 214Q173 165 175 126T186 58T211 15T256 0Q298 0 321 21T357 75T371 145T374 214Z"  />
<glyph unicode="e" horiz-adv-x="500" d="M170 251V206Q170 170 173 134T189 68T227 19T297 0Q337 0 364 15T409 49T435 88T445 116L459 111Q454 93 442 71T409 30T357 -1T282 -14Q230 -14 185 2T107 47T54 119T35 216Q35 259 53 300T102 372T176 423T268 443Q302 443 337 432T401 398T447 339T465 251H170ZM330 265V332Q330 342 329 358T322 391T303 418T265 429Q231 429 213 413T185 373T174 319T170 265H330Z"  />
<glyph unicode="f" horiz-adv-x="352" d="M38 429H104Q104 462 105 497T111 565T129 627T163 679T219 715T303 728Q325 728 347 723T388 706T417 676T428 631Q428 608 411 592T371 576Q318 576 318 627Q318 630 319 637T321 653T324 669T326 679Q326 697 313 705T283 714Q262 714 250 704T233 675T227 634T226 584V429H309V415H226V14H303V0H38V14H104V415H38V429Z"  />
<glyph unicode="g" horiz-adv-x="537" d="M286 71Q323 71 358 64T419 38T461 -11T477 -88Q477 -127 461 -164T414 -230T339 -277T240 -295Q177 -295 140 -281T82 -248T56 -208T50 -173Q50 -146 62 -125T94 -89T136 -62T183 -45V-43Q163 -43 138 -38T90 -21T53 12T38 65Q38 70 40 83T52 113T79 150T129 186Q120 193 109 202T89 224T73 253T66 292Q66 323 79 350T118 398T179 431T261 443Q306 443 338 429T394 397Q419 420 439 431T492 443Q521 443 535 429T550 391Q550 371 538 360T506 348Q492 348 484 352T471 361T465 373T462 384Q460 398 458 405T445 412Q439 412 431 408T403 389Q415 376 429 355T443 292Q443 267 434 243T403 198T347 166T263 153Q223 153 192 161T141 177Q112 158 107 145T102 120Q102 95 122 83T176 71H286ZM256 167Q274 167 288 171T312 189T327 228T333 295Q333 324 331 348T321 391T298 419T256 429Q230 429 215 419T191 391T179 352T176 307Q176 260 182 232T198 190T224 171T256 167ZM140 -157Q140 -175 145 -196T164 -235T202 -266T264 -278Q292 -278 318 -268T364 -240T396 -197T408 -142Q408 -112 398 -94T373 -64T340 -49T307 -45H203Q173 -69 157 -93T140 -157Z"  />
<glyph unicode="h" horiz-adv-x="630" d="M37 14H103V707H37V721H225V333H227Q231 342 240 359T269 394T317 425T392 438Q457 438 494 400T531 296V14H598V0H347V14H409V330Q409 372 392 391T346 411Q322 411 300 400T262 365T235 308T225 228V14H288V0H37V14Z"  />
<glyph unicode="i" horiz-adv-x="315" d="M93 644Q93 673 114 694T164 715Q193 715 214 694T235 644Q235 615 214 594T164 573Q135 573 114 594T93 644ZM36 429H225V14H292V0H36V14H103V415H36V429Z"  />
<glyph unicode="j" horiz-adv-x="333" d="M109 644Q109 673 130 694T180 715Q209 715 230 694T251 644Q251 615 230 594T180 573Q151 573 130 594T109 644ZM119 415H52V429H241V-43Q241 -95 233 -139T205 -217T153 -268T74 -287Q21 -287 -14 -265T-50 -202Q-50 -170 -33 -158T6 -146Q31 -146 45 -157T59 -190Q59 -201 55 -215T51 -241Q51 -251 55 -262T83 -273Q101 -273 110 -262T119 -212V415Z"  />
<glyph unicode="k" horiz-adv-x="593" d="M35 721H223V244H228L414 415H341V429H498V415H434L322 309L551 14H590V0H325V14H397L228 230H223V14H285V0H35V14H101V707H35V721Z"  />
<glyph unicode="l" horiz-adv-x="315" d="M36 721H225V14H292V0H36V14H103V707H36V721Z"  />
<glyph unicode="m" horiz-adv-x="889" d="M42 429H228V358H230Q236 368 246 381T272 407T312 429T369 438Q404 438 427 431T466 412T491 386T509 358Q524 385 542 400T580 424T615 435T644 438Q701 438 732 421T777 381T793 331T796 287V14H862V0H615V14H674V324Q674 366 659 388T607 411Q596 411 580 405T549 387T524 356T513 309V14H572V0H331V14H391V332Q391 376 372 393T330 411Q290 411 260 376Q252 366 246 356T237 332T232 301T230 258V14H289V0H42V14H108V415H42V429Z"  />
<glyph unicode="n" horiz-adv-x="630" d="M42 14H108V415H42V429H228V329H230Q234 338 244 356T273 393T322 424T397 438Q462 438 499 400T536 296V14H603V0H352V14H414V330Q414 372 397 391T351 411Q327 411 305 400T267 365T240 308T230 228V14H293V0H42V14Z"  />
<glyph unicode="o" horiz-adv-x="556" d="M278 443Q330 443 374 425T452 375T503 303T522 215Q522 168 504 127T452 54T375 5T278 -14Q226 -14 182 4T104 54T53 126T34 215Q34 261 52 302T104 375T181 424T278 443ZM278 0Q317 0 339 18T371 67T384 135T387 215Q387 255 385 293T372 362T339 410T278 429Q239 429 217 411T185 362T172 294T169 215Q169 174 171 136T184 67T217 19T278 0Z"  />
<glyph unicode="p" horiz-adv-x="593" d="M97 415H31V429H217V355H219Q251 443 337 443Q395 443 436 421T503 364T542 290T555 215Q555 170 539 129T495 56T426 5T337 -14Q291 -14 263 11T221 72H219V-266H287V-280H31V-266H97V415ZM219 214Q219 182 221 145T236 76T271 22T337 0Q365 0 381 15T406 58T417 125T420 214Q420 274 416 315T400 382T372 418T329 429Q292 429 270 408T237 355T223 285T219 214Z"  />
<glyph unicode="q" horiz-adv-x="593" d="M496 -266H562V-280H306V-266H374V72H372Q358 37 330 12T256 -14Q207 -14 167 5T99 56T54 129T38 215Q38 250 50 290T89 364T157 420T256 443Q342 443 374 355H376V429H562V415H496V-266ZM374 214Q374 247 371 285T356 355T323 408T264 429Q238 429 221 418T193 382T178 316T173 214Q173 165 175 126T186 58T211 15T256 0Q298 0 321 21T357 75T371 145T374 214Z"  />
<glyph unicode="r" horiz-adv-x="444" d="M41 429H226V345H228Q246 383 276 410T357 438Q399 438 425 416T451 353Q451 323 437 306T390 289Q367 289 348 298T329 334Q329 337 330 344T332 360T335 375T336 384Q336 384 336 388T333 396T327 404T313 408Q302 408 288 399T260 371T238 328T228 270V14H307V0H41V14H106V415H41V429Z"  />
<glyph unicode="s" horiz-adv-x="426" d="M44 145H58Q70 117 82 91T111 45T153 12T212 0Q221 0 236 1T265 9T290 32T301 77Q301 86 299 95T288 115T265 134T222 154L141 184Q127 189 111 198T82 220T59 253T50 300Q50 329 62 355T95 400T147 431T214 443Q233 443 249 439T279 431T303 422T320 418Q331 418 334 422T339 431H353V309H340Q330 333 320 355T295 393T259 419T207 429Q190 429 175 425T147 412T127 390T119 360Q119 353 121 344T130 326T151 307T192 288L277 259Q331 240 359 209T387 130Q387 97 373 71T335 25T280 -4T216 -14Q198 -14 177 -10T137 0T101 9T76 14Q68 14 65 11T58 0H44V145Z"  />
<glyph unicode="t" horiz-adv-x="370" d="M101 558Q116 552 131 548T162 544Q177 544 192 548T223 558V429H340V415H223V80Q223 65 225 52T232 29T248 12T276 6Q295 6 308 14T332 34T348 63T359 94L374 91Q368 57 354 37T320 5T281 -10T241 -14Q188 -14 160 -2T119 28T103 68T101 107V415H34V429H101V558Z"  />
<glyph unicode="u" horiz-adv-x="611" d="M27 429H216V112Q216 74 231 48T284 21Q307 21 326 32T358 61T379 105T387 157V415H321V429H509V14H575V0H389V81H387Q379 59 363 43T327 15T283 -3T238 -9Q168 -9 131 22T94 126V415H27V429Z"  />
<glyph unicode="v" horiz-adv-x="463" d="M-14 429H248V415H176L299 138L408 415H331V429H471V415H425L248 -28H240L41 415H-14V429Z"  />
<glyph unicode="w" horiz-adv-x="741" d="M54 415H-6V429H249V415H184L287 155L366 368L346 415H295V429H545V415H478L581 155L677 415H607V429H742V415H693L529 -28H522L374 347L235 -28H228L54 415Z"  />
<glyph unicode="x" horiz-adv-x="500" d="M3 429H265V415H204L289 275L391 415H324V429H465V415H409L299 262L456 14H497V0H242V14H311L212 169L101 14H178V0H15V14H82L203 182L54 415H3V429Z"  />
<glyph unicode="y" horiz-adv-x="481" d="M299 126L426 415H343V429H488V415H442Q386 295 347 200T277 31T225 -100T182 -200Q162 -244 137 -265T70 -287Q25 -287 -4 -266T-33 -206Q-33 -177 -14 -164T31 -151Q50 -151 67 -161T84 -193Q84 -211 78 -222T71 -248Q71 -259 77 -264T91 -270Q109 -270 124 -257T152 -225T174 -183T191 -143L234 -36L46 415H-8V429H247V415H177L299 126Z"  />
<glyph unicode="z" horiz-adv-x="463" d="M277 415H188Q161 415 142 409T109 389T83 356T60 310H49L64 429H421L179 14H301Q332 14 352 25T386 53T408 93T425 138H436L425 0H34L277 415Z"  />
<glyph unicode="{" horiz-adv-x="370" d="M337 694Q282 691 253 673T209 629T193 571T190 511V433Q190 391 189 362T185 313T174 279T156 254Q144 242 131 235T104 224T80 219T62 216Q68 215 79 214T104 208T130 197T156 178Q167 167 174 154T184 120T189 70T190 -1V-79Q190 -108 192 -139T209 -196T252 -241T337 -262V-280Q328 -279 315 -278T288 -274T258 -264T229 -247Q207 -230 195 -210T178 -166T171 -113T170 -50V57Q170 93 165 118T146 162T105 192T34 213V219Q78 228 104 240T145 270T165 313T170 375V482Q170 516 171 545T177 598T195 642T229 679Q242 690 257 696T287 705T315 710T337 712V694Z"  />
<glyph unicode="|" horiz-adv-x="222" d="M101 750H121V-250H101V750Z"  />
<glyph unicode="}" horiz-adv-x="370" d="M34 -262Q89 -259 118 -241T162 -197T178 -139T181 -79V-1Q181 41 182 70T186 119T197 153T215 178Q227 190 240 197T267 208T291 213T309 216Q303 217 292 218T267 224T241 235T215 254Q204 265 197 278T187 312T182 362T181 433V511Q181 540 179 571T162 628T119 673T34 694V712Q43 711 56 710T83 706T113 696T142 679Q164 662 176 642T193 598T200 545T201 482V375Q201 339 206 314T225 270T266 240T337 219V213Q293 204 267 192T226 162T206 119T201 57V-50Q201 -84 200 -113T194 -166T176 -210T142 -247Q128 -258 113 -264T84 -273T56 -278T34 -280V-262Z"  />
<glyph unicode="~" horiz-adv-x="650" d="M59 211Q59 251 70 279T99 326T143 352T196 361Q201 361 206 361T217 359Q237 356 269 342T338 313T410 286T470 274Q498 274 516 295T535 359H591Q591 318 582 290T557 244T521 218T478 209H458Q453 209 448 209T438 211Q419 214 393 224T337 248T279 273T223 290Q197 296 179 295Q151 293 134 273T116 211H59Z"  />
<glyph unicode="&#xA0;" horiz-adv-x="278" />
<glyph unicode="&#xA1;" horiz-adv-x="296" d="M219 372Q219 343 198 322T148 301Q119 301 98 322T77 372Q77 401 98 422T148 443Q177 443 198 422T219 372ZM206 -165Q209 -190 211 -205T213 -227Q213 -257 195 -276T148 -295Q119 -295 101 -276T83 -227Q83 -220 85 -205T90 -165L138 232H158L206 -165Z"  />
<glyph unicode="&#xA2;" horiz-adv-x="520" d="M205 1Q178 10 150 27T100 70T63 133T48 215Q48 252 64 292T111 365T188 421T294 443Q303 443 312 443T329 440L353 524L367 521L344 439Q398 429 431 402T464 332Q464 299 447 286T399 272Q376 272 357 280T337 316Q337 320 339 330T344 351T349 372T352 386Q352 404 337 416L228 30Q242 16 261 8T308 0Q349 0 377 14T422 48T448 87T458 116L472 111Q467 94 457 72T426 31T374 -1T295 -14Q283 -14 263 -12T218 -3L192 -95L178 -92L205 1ZM324 422Q313 429 291 429Q255 429 234 412T202 367T187 301T183 221Q183 173 188 125T217 44L324 422Z"  />
<glyph unicode="&#xA3;" horiz-adv-x="592" d="M38 391H134Q110 431 104 464T98 515Q98 563 120 602T177 670T256 713T346 728Q392 728 425 715T481 683T513 642T523 602Q523 571 507 561T462 550Q457 550 447 550T428 555T411 569T404 595Q404 606 408 626T413 667Q413 684 398 699T353 714Q314 714 291 697T255 652T238 590T233 523Q233 515 233 496T234 456T235 417T238 391H392V377H237Q238 367 240 342T245 287T249 229T251 186Q251 171 249 154T244 116Q281 110 318 106T411 101Q448 101 470 103T504 110T524 124T541 148L554 144Q545 123 532 96T500 44T453 3T387 -14Q362 -14 341 -8T300 9T262 32T226 58Q206 32 185 16T123 0Q109 0 95 3T70 14T52 35T45 66Q45 87 53 100T75 120T103 130T133 133Q160 133 180 129T229 118Q232 130 232 142Q232 167 227 189T212 238T184 298T142 377H38V391ZM216 67Q197 84 184 94T159 109T137 117T116 119Q93 119 76 105T59 65Q59 42 78 28T123 14Q142 14 155 17T178 28T198 45T216 67Z"  />
<glyph unicode="&#xA4;" horiz-adv-x="556" d="M127 220Q94 258 85 295T75 357Q75 393 88 429T128 494L64 558L77 571L141 507Q170 533 204 546T278 560Q316 560 350 546T414 507L479 571L492 558L428 494Q447 473 457 452T473 412T479 380T481 357Q481 349 480 334T473 301T458 262T428 220L492 156L479 143L414 207Q384 178 347 166T277 154Q250 154 228 160T189 174T160 192T141 207L77 143L64 156L127 220ZM95 357Q95 319 109 286T148 228T206 189T278 174Q316 174 349 188T407 227T446 285T461 357Q461 395 447 428T408 486T350 525T278 540Q240 540 207 526T149 487T110 429T95 357Z"  />
<glyph unicode="&#xA5;" horiz-adv-x="556" d="M226 281H48V298H222L175 403H48V420H168L44 698H-34V712H276V698H197L354 321L489 698H402V712H590V698H506L409 420H545V403H404L367 298H545V281H366V14H459V0H134V14H226V281Z"  />
<glyph unicode="&#xA6;" horiz-adv-x="222" d="M101 675H121V325H101V675ZM101 175H121V-175H101V175Z"  />
<glyph unicode="&#xA7;" horiz-adv-x="556" d="M406 397Q418 389 433 378T461 351T483 312T492 259Q492 227 483 200T459 151T427 110T394 78Q411 64 426 49T452 15T469 -26T476 -78Q476 -109 462 -144T420 -210T351 -260T255 -280Q199 -280 164 -266T108 -230T80 -186T72 -147Q72 -91 135 -91Q144 -91 153 -93T171 -99T184 -111T189 -131Q189 -142 186 -150T178 -167T170 -183T166 -202Q166 -232 193 -249T258 -266Q293 -266 317 -253T357 -218T380 -173T387 -126Q387 -102 381 -84T363 -51T334 -23T296 3L160 85Q110 116 87 152T64 244Q64 277 75 304T101 353T132 389T160 412Q138 433 119 462T100 542Q100 574 113 607T154 667T221 711T316 728Q349 728 377 721T427 699T461 663T473 615Q473 607 472 597T466 578T450 563T418 557Q412 557 403 557T384 562T368 574T361 598Q361 609 364 617T372 633T379 649T383 668Q383 681 376 690T358 704T335 712T310 714Q271 714 247 701T209 668T191 630T186 600Q186 580 194 563T214 530T241 503T272 481L406 397ZM116 317Q116 297 124 280T146 247T175 220T206 198L326 123L382 86Q388 91 397 99T413 118T426 143T432 178Q432 213 412 237T361 282Q313 312 264 342T171 404Q150 385 133 366T116 317Z"  />
<glyph unicode="&#xA8;" horiz-adv-x="278" d="M162 644Q162 670 181 689T226 708Q252 708 271 689T290 644Q290 618 271 599T226 580Q200 580 181 599T162 644ZM-12 644Q-12 670 7 689T52 708Q78 708 97 689T116 644Q116 618 97 599T52 580Q26 580 7 599T-12 644Z"  />
<glyph unicode="&#xA9;" horiz-adv-x="833" d="M45 357Q45 433 74 501T153 619T271 698T416 728Q492 728 560 699T678 619T757 501T787 357Q787 280 758 213T678 95T560 16T416 -14Q339 -14 272 15T154 95T74 212T45 357ZM65 357Q65 285 92 221T167 109T279 34T416 6Q488 6 552 33T664 109T739 221T767 357Q767 429 740 493T664 605T552 680T416 708Q343 708 279 681T168 605T93 493T65 357ZM571 150H561Q556 163 542 163Q535 163 524 160T498 152T466 145T429 141Q385 141 345 158T273 205T224 275T205 361Q205 412 225 453T278 523T351 568T429 584Q467 584 495 573T540 562Q548 562 551 564T557 574H567V453H559Q553 473 544 495T521 535T484 564T430 576Q389 576 364 562T326 520T308 447T303 343Q303 288 310 251T332 192T372 159T430 149Q457 149 478 160T516 188T544 229T561 276H571V150Z"  />
<glyph unicode="&#xAA;" horiz-adv-x="311" d="M266 495Q266 487 269 476T284 464Q293 464 299 471T308 483L317 474Q313 469 309 465T299 457T282 452T257 450Q223 450 209 464T191 489Q189 484 185 478T173 465T153 455T123 450Q105 450 87 453T55 463T31 482T22 514Q22 525 25 535T37 554T64 572T111 589L160 603Q187 610 187 640V683Q187 700 178 708T151 717Q142 717 130 713T117 690Q117 686 119 675T121 660Q121 637 108 633T77 628Q61 628 52 636T42 660Q42 688 69 708T154 728Q196 728 218 718T251 695T264 667T266 644V495ZM185 602Q180 598 173 596T153 588Q145 585 137 581T123 571T112 554T108 526Q108 502 113 483T144 464Q165 464 175 479T185 518V602Z"  />
<glyph unicode="&#xAB;" horiz-adv-x="444" d="M397 344Q383 340 369 335T344 316T325 279T318 215Q318 179 323 156T339 119T363 98T397 86L394 74Q373 78 344 86T288 110T243 151T224 215Q224 254 243 279T290 320T346 344T394 356L397 344ZM220 344Q206 340 192 335T167 316T148 279T141 215Q141 179 146 156T162 119T186 98T220 86L217 74Q196 78 167 86T111 110T66 151T47 215Q47 254 66 279T113 320T169 344T217 356L220 344Z"  />
<glyph unicode="&#xAC;" horiz-adv-x="593" d="M516 317H56V335H536V145H516V317Z"  />
<glyph unicode="&#xAD;" horiz-adv-x="370" d="M91 264H279V166H91V264Z"  />
<glyph unicode="&#xAE;" horiz-adv-x="490" d="M60 542Q60 580 74 614T114 673T173 713T245 728Q283 728 317 714T376 674T416 614T431 542Q431 504 417 470T377 411T317 372T245 357Q207 357 173 371T114 411T75 470T60 542ZM70 542Q70 506 83 474T121 419T177 381T245 367Q281 367 313 381T369 418T407 474T421 542Q421 578 407 610T369 666T313 704T245 718Q209 718 177 704T121 666T84 610T70 542ZM187 641H161V645H203Q214 645 226 645T249 646Q260 646 272 644T293 636T309 622T316 599Q316 576 299 567T262 556V555Q289 550 304 543T322 505Q325 470 327 461T338 451Q344 451 347 454T354 460L357 458Q351 452 345 449T324 445Q309 445 301 450T288 462T283 477T282 493Q281 504 280 514T276 533T265 547T245 552H227V453H252V449H161V453H187V641ZM227 556H238Q263 556 268 568T274 596Q274 620 267 631T239 642Q236 642 233 642T227 641V556Z"  />
<glyph unicode="&#xAF;" horiz-adv-x="278" d="M-22 642H300V612H-22V642Z"  />
<glyph unicode="&#xB0;" horiz-adv-x="400" d="M65 593Q65 621 75 645T104 688T147 717T200 728Q228 728 252 718T295 689T324 646T335 593Q335 565 325 541T296 498T253 469T200 458Q172 458 148 468T105 497T76 540T65 593ZM85 593Q85 569 94 548T118 512T155 487T200 478Q224 478 245 487T281 511T306 548T315 593Q315 617 306 638T282 674T245 699T200 708Q176 708 155 699T119 675T94 638T85 593Z"  />
<glyph unicode="&#xB1;" horiz-adv-x="593" d="M286 263H56V281H286V480H306V281H536V263H306V66H286V263ZM56 18H536V0H56V18Z"  />
<glyph unicode="&#xB2;" horiz-adv-x="333" d="M195 357Q217 357 234 358T264 364T284 382T294 417H308V291H20V305L30 314Q84 362 119 396T174 462T203 527T211 609Q211 648 206 669T194 701T177 712T159 714Q141 714 131 710T117 699T112 685T111 672Q111 668 114 656T117 639Q117 625 105 617T76 608Q63 608 50 615T37 637Q37 660 49 677T81 705T122 722T164 728Q191 728 216 720T259 697T289 660T301 609Q301 603 300 592T293 565T273 529T234 484L103 357H195Z"  />
<glyph unicode="&#xB3;" horiz-adv-x="333" d="M66 514Q74 519 82 524T100 531L168 549Q183 553 192 564T207 589T214 618T216 645Q216 714 158 714Q145 714 132 709T118 683Q118 678 121 665T124 648Q124 638 120 632T108 622T94 617T83 615Q82 615 76 615T63 619T51 629T45 649Q45 675 61 690T98 714T142 725T176 728Q195 728 217 724T258 708T289 680T302 637Q302 612 291 596T261 568T221 550T179 538V536Q203 534 227 526T271 504T303 468T316 418Q316 389 303 364T266 321T213 292T147 281Q94 281 60 305T13 380H28Q39 345 67 320T134 295Q167 295 185 306T213 337T225 381T227 434Q227 444 226 459T218 490T196 516T153 527Q145 527 121 524T74 501L66 514Z"  />
<glyph unicode="&#xB4;" horiz-adv-x="278" d="M184 705Q189 716 197 726T226 736Q234 736 246 729T259 706Q259 702 258 694T250 679L109 529H96L184 705Z"  />
<glyph unicode="&#xB5;" horiz-adv-x="611" d="M94 415H27V429H216V112Q216 74 231 48T284 21Q307 21 326 32T358 61T379 105T387 157V415H321V429H509V14H575V0H389V81H387Q379 62 366 46T337 19T304 1T272 -6Q254 -6 241 -1T216 17V-280H94V415Z"  />
<glyph unicode="&#xB6;" horiz-adv-x="593" d="M558 712V698H491V147Q491 55 469 -13T387 -125Q360 -145 333 -156T280 -174T234 -183T200 -185Q164 -185 143 -175T112 -152T98 -125T95 -104Q95 -74 114 -61T159 -48Q164 -48 173 -49T190 -53T205 -64T212 -85Q212 -90 211 -99T203 -126Q202 -128 200 -136T197 -146Q197 -147 198 -150T206 -154Q209 -154 217 -152T235 -142T257 -120T278 -81Q286 -61 290 -31T296 32T298 95T299 147V289Q267 290 230 293T150 313Q124 323 102 341T62 384T36 439T26 503Q26 563 55 610T130 678Q180 700 222 706T314 712H558ZM384 698H314V147Q314 74 311 19T297 -76T262 -138T200 -171Q209 -171 221 -170T249 -165T280 -151T314 -126Q326 -115 338 -98T361 -51T377 26T384 147V698Z"  />
<glyph unicode="&#xB7;" horiz-adv-x="278" d="M68 282Q68 311 89 332T139 353Q168 353 189 332T210 282Q210 253 189 232T139 211Q110 211 89 232T68 282Z"  />
<glyph unicode="&#xB8;" horiz-adv-x="278" d="M155 0H175L105 -72L107 -74Q118 -69 132 -65T159 -60Q177 -60 193 -66T222 -84T242 -111T250 -145Q250 -169 241 -186T215 -216T179 -234T137 -240Q111 -240 94 -233T57 -210L66 -198Q82 -209 93 -214T124 -220Q139 -220 148 -214T162 -197T169 -174T171 -149Q171 -139 171 -127T166 -106T155 -90T133 -83Q113 -83 96 -93L82 -79L155 0Z"  />
<glyph unicode="&#xB9;" horiz-adv-x="333" d="M147 665Q130 655 119 649T100 638T84 630T67 623L60 636Q98 656 133 676T200 728H228V305H285V291H89V305H147V665Z"  />
<glyph unicode="&#xBA;" horiz-adv-x="334" d="M321 589Q321 560 309 535T275 491T225 461T167 450Q137 450 109 461T60 490T26 534T13 589Q13 618 25 643T59 687T109 717T167 728Q197 728 225 717T274 688T308 644T321 589ZM167 461Q191 461 204 471T224 500T231 541T232 589Q232 614 231 637T224 678T205 706T167 717Q143 717 130 707T110 678T103 637T102 589Q102 564 103 541T110 500T129 472T167 461Z"  />
<glyph unicode="&#xBB;" horiz-adv-x="444" d="M224 86Q238 90 252 95T277 114T296 150T303 215Q303 251 298 274T282 311T258 332T224 344L227 356Q248 351 277 343T333 320T378 279T397 215Q397 176 378 151T331 110T275 86T227 74L224 86ZM47 86Q61 90 75 95T100 114T119 150T126 215Q126 251 121 274T105 311T81 332T47 344L50 356Q71 351 100 343T156 320T201 279T220 215Q220 176 201 151T154 110T98 86T50 74L47 86Z"  />
<glyph unicode="&#xBC;" horiz-adv-x="834" d="M585 728L605 719L229 -14L209 -5L585 728ZM165 665Q148 655 137 649T118 638T102 630T85 623L78 636Q116 656 151 676T218 728H246V305H303V291H107V305H165V665ZM702 108H756V94H702V14H756V0H565V14H621V94H443Q462 141 481 182T516 256T543 309T557 336Q589 393 612 415T662 437Q665 437 671 437T684 434T696 428T701 415Q701 408 698 405T682 389L633 344Q629 340 613 323T572 277T520 205T464 108H621V257H702V108Z"  />
<glyph unicode="&#xBD;" horiz-adv-x="834" d="M586 728L606 719L230 -14L210 -5L586 728ZM166 665Q149 655 138 649T119 638T103 630T86 623L79 636Q117 656 152 676T219 728H247V305H304V291H108V305H166V665ZM641 66Q663 66 680 67T710 73T730 91T740 126H754V0H466V14L476 23Q530 71 565 105T620 171T649 236T657 318Q657 357 652 378T640 410T623 421T605 423Q587 423 577 419T563 408T558 394T557 381Q557 377 560 365T563 348Q563 334 551 326T522 317Q509 317 496 324T483 346Q483 369 495 386T527 414T568 431T610 437Q637 437 662 429T705 406T735 369T747 318Q747 312 746 301T739 274T719 238T680 193L549 66H641Z"  />
<glyph unicode="&#xBE;" horiz-adv-x="834" d="M608 728L628 719L252 -14L232 -5L608 728ZM107 514Q115 519 123 524T141 531L209 549Q224 553 233 564T248 589T255 618T257 645Q257 714 199 714Q186 714 173 709T159 683Q159 678 162 665T165 648Q165 638 161 632T149 622T135 617T124 615Q123 615 117 615T104 619T92 629T86 649Q86 675 102 690T139 714T183 725T217 728Q236 728 258 724T299 708T330 680T343 637Q343 612 332 596T302 568T262 550T220 538V536Q244 534 268 526T312 504T344 468T357 418Q357 389 344 364T307 321T254 292T188 281Q135 281 101 305T54 380H69Q80 345 108 320T175 295Q208 295 226 306T254 337T266 381T268 434Q268 444 267 459T259 490T237 516T194 527Q186 527 162 524T115 501L107 514ZM725 108H779V94H725V14H779V0H588V14H644V94H466Q485 141 504 182T539 256T566 309T580 336Q612 393 635 415T685 437Q688 437 694 437T707 434T719 428T724 415Q724 408 721 405T705 389L656 344Q652 340 636 323T595 277T543 205T487 108H644V257H725V108Z"  />
<glyph unicode="&#xBF;" horiz-adv-x="444" d="M384 372Q384 343 363 322T313 301Q284 301 263 322T242 372Q242 401 263 422T313 443Q342 443 363 422T384 372ZM321 6H304Q292 24 277 38T240 53Q201 53 188 7T175 -127Q175 -171 178 -200T188 -248T207 -273T237 -281Q264 -281 276 -269T289 -243Q289 -234 286 -228T279 -216T272 -203T268 -185Q268 -159 281 -150T323 -140Q343 -140 360 -150T377 -187Q377 -215 364 -235T330 -269T284 -288T233 -295Q189 -295 155 -281T99 -241T65 -183T53 -113Q53 -63 72 -28T118 28T174 60T222 70Q257 70 275 59T302 36H304V241H321V6Z"  />
<glyph unicode="&#xC0;" horiz-adv-x="759" d="M-26 14H59L357 740H384L699 14H785V0H449V14H542L426 282H186L75 14H164V0H-26V14ZM421 296L303 569L191 296H421ZM415 762H402L261 912Q255 919 254 927T252 939Q252 954 264 961T285 969Q305 969 313 959T327 938L415 762Z"  />
<glyph unicode="&#xC1;" horiz-adv-x="759" d="M-26 14H59L357 740H384L699 14H785V0H449V14H542L426 282H186L75 14H164V0H-26V14ZM421 296L303 569L191 296H421ZM417 938Q422 949 430 959T459 969Q467 969 479 962T492 939Q492 935 491 927T483 912L342 762H329L417 938Z"  />
<glyph unicode="&#xC2;" horiz-adv-x="759" d="M-26 14H59L357 740H384L699 14H785V0H449V14H542L426 282H186L75 14H164V0H-26V14ZM421 296L303 569L191 296H421ZM336 959H409L517 762H505L372 889L239 762H227L336 959Z"  />
<glyph unicode="&#xC3;" horiz-adv-x="759" d="M-26 14H59L357 740H384L699 14H785V0H449V14H542L426 282H186L75 14H164V0H-26V14ZM421 296L303 569L191 296H421ZM230 802H216Q232 848 241 868T264 900Q273 908 288 913T315 918Q322 918 346 912T397 898T446 884T474 878Q484 878 491 884T504 899T511 914T514 924H528Q525 911 518 891T500 853T472 821T432 808Q417 808 395 814T348 828T303 842T270 849Q263 849 255 845T242 829L230 802Z"  />
<glyph unicode="&#xC4;" horiz-adv-x="759" d="M-26 14H59L357 740H384L699 14H785V0H449V14H542L426 282H186L75 14H164V0H-26V14ZM421 296L303 569L191 296H421ZM395 858Q395 884 414 903T459 922Q485 922 504 903T523 858Q523 832 504 813T459 794Q433 794 414 813T395 858ZM221 858Q221 884 240 903T285 922Q311 922 330 903T349 858Q349 832 330 813T285 794Q259 794 240 813T221 858Z"  />
<glyph unicode="&#xC5;" horiz-adv-x="759" d="M-26 14H59L357 740H384L699 14H785V0H449V14H542L426 282H186L75 14H164V0H-26V14ZM421 296L303 569L191 296H421ZM470 857Q470 841 464 824T444 792T412 768T365 758Q338 758 319 767T286 791T267 823T260 857Q260 873 266 890T286 922T318 946T365 956Q392 956 411 947T444 923T463 891T470 857ZM365 945Q336 945 327 922T318 857Q318 815 327 792T365 769Q394 769 403 792T412 857Q412 899 403 922T365 945Z"  />
<glyph unicode="&#xC6;" horiz-adv-x="981" d="M-31 14H29L424 698H331V712H897V541H884Q879 557 867 584T834 636T778 679T695 698H588V389H607Q644 389 669 399T712 429T740 476T758 538H771V227H758Q751 256 742 283T716 330T676 363T618 375H588V14H683Q729 14 766 29T831 73T879 138T908 219H921V0H351V14H443V375H255L46 14H145V0H-31V14ZM263 389H443V698H441L263 389Z"  />
<glyph unicode="&#xC7;" horiz-adv-x="722" d="M663 0H647Q642 12 635 16T614 21Q602 21 583 16T540 3T486 -9T425 -15H402L345 -72L347 -74Q358 -69 372 -65T399 -60Q417 -60 433 -66T462 -84T482 -111T490 -145Q490 -169 481 -186T455 -216T419 -234T377 -240Q351 -240 334 -233T297 -210L306 -198Q322 -209 333 -214T364 -220Q379 -220 388 -214T402 -197T409 -174T411 -149Q411 -139 411 -127T406 -106T395 -90T373 -83Q353 -83 336 -93L322 -79L384 -12Q317 -5 257 26T151 107T78 219T51 354Q51 439 85 508T174 626T294 701T425 728Q456 728 484 722T535 710T577 697T610 691Q624 691 631 694T641 712H657V508H644Q633 541 618 577T578 644T517 694T426 714Q370 714 333 697T272 651T236 582T219 500T214 411T214 324Q214 233 226 171T263 71T329 16T426 -1Q471 -1 507 17T572 65T619 133T647 212H663V0Z"  />
<glyph unicode="&#xC8;" horiz-adv-x="722" d="M37 14H129V698H37V712H635V541H622Q617 557 605 584T572 636T516 679T433 698H274V389H330Q367 389 392 399T435 429T463 476T481 538H494V227H481Q474 256 465 283T439 330T399 363T341 375H274V14H438Q484 14 521 29T586 73T634 138T663 219H676V0H37V14ZM412 762H399L258 912Q252 919 251 927T249 939Q249 954 261 961T282 969Q302 969 310 959T324 938L412 762Z"  />
<glyph unicode="&#xC9;" horiz-adv-x="722" d="M37 14H129V698H37V712H635V541H622Q617 557 605 584T572 636T516 679T433 698H274V389H330Q367 389 392 399T435 429T463 476T481 538H494V227H481Q474 256 465 283T439 330T399 363T341 375H274V14H438Q484 14 521 29T586 73T634 138T663 219H676V0H37V14ZM414 938Q419 949 427 959T456 969Q464 969 476 962T489 939Q489 935 488 927T480 912L339 762H326L414 938Z"  />
<glyph unicode="&#xCA;" horiz-adv-x="722" d="M37 14H129V698H37V712H635V541H622Q617 557 605 584T572 636T516 679T433 698H274V389H330Q367 389 392 399T435 429T463 476T481 538H494V227H481Q474 256 465 283T439 330T399 363T341 375H274V14H438Q484 14 521 29T586 73T634 138T663 219H676V0H37V14ZM333 959H406L514 762H502L369 889L236 762H224L333 959Z"  />
<glyph unicode="&#xCB;" horiz-adv-x="722" d="M37 14H129V698H37V712H635V541H622Q617 557 605 584T572 636T516 679T433 698H274V389H330Q367 389 392 399T435 429T463 476T481 538H494V227H481Q474 256 465 283T439 330T399 363T341 375H274V14H438Q484 14 521 29T586 73T634 138T663 219H676V0H37V14ZM392 858Q392 884 411 903T456 922Q482 922 501 903T520 858Q520 832 501 813T456 794Q430 794 411 813T392 858ZM218 858Q218 884 237 903T282 922Q308 922 327 903T346 858Q346 832 327 813T282 794Q256 794 237 813T218 858Z"  />
<glyph unicode="&#xCC;" horiz-adv-x="407" d="M39 14H131V698H39V712H368V698H276V14H368V0H39V14ZM247 762H234L93 912Q87 919 86 927T84 939Q84 954 96 961T117 969Q137 969 145 959T159 938L247 762Z"  />
<glyph unicode="&#xCD;" horiz-adv-x="407" d="M39 14H131V698H39V712H368V698H276V14H368V0H39V14ZM249 938Q254 949 262 959T291 969Q299 969 311 962T324 939Q324 935 323 927T315 912L174 762H161L249 938Z"  />
<glyph unicode="&#xCE;" horiz-adv-x="407" d="M39 14H131V698H39V712H368V698H276V14H368V0H39V14ZM168 959H241L349 762H337L204 889L71 762H59L168 959Z"  />
<glyph unicode="&#xCF;" horiz-adv-x="407" d="M39 14H131V698H39V712H368V698H276V14H368V0H39V14ZM227 858Q227 884 246 903T291 922Q317 922 336 903T355 858Q355 832 336 813T291 794Q265 794 246 813T227 858ZM53 858Q53 884 72 903T117 922Q143 922 162 903T181 858Q181 832 162 813T117 794Q91 794 72 813T53 858Z"  />
<glyph unicode="&#xD0;" horiz-adv-x="815" d="M124 372H32V389H124V698H32V712H124Q175 712 226 713T328 715Q373 715 423 709T522 688T615 646T693 580T747 485T767 356Q767 283 747 228T694 133T617 67T528 26T435 4T351 -3Q294 -3 238 -2T124 0H32V14H124V372ZM269 389H417V372H269V14Q297 11 322 11Q387 11 433 26T510 68T560 129T588 200T601 275T604 346Q604 427 594 492T555 604T472 676T331 701Q311 701 295 701T269 698V389Z"  />
<glyph unicode="&#xD1;" horiz-adv-x="741" d="M34 14H126V698H34V712H270L603 236H605V698H513V712H713V698H621V0H594L144 641H142V14H234V0H34V14ZM229 802H215Q231 848 240 868T263 900Q272 908 287 913T314 918Q321 918 345 912T396 898T445 884T473 878Q483 878 490 884T503 899T510 914T513 924H527Q524 911 517 891T499 853T471 821T431 808Q416 808 394 814T347 828T302 842T269 849Q262 849 254 845T241 829L229 802Z"  />
<glyph unicode="&#xD2;" horiz-adv-x="833" d="M42 354Q42 439 76 508T165 626T285 701T417 728Q486 728 553 702T673 628T758 511T791 357Q791 282 761 215T679 96T560 15T417 -15Q343 -15 275 13T156 92T73 209T42 354ZM205 354Q205 250 217 182T254 73T320 16T417 -1Q491 -1 533 26T596 103T622 218T628 363Q628 433 624 496T598 608T535 685T417 714Q347 714 305 688T241 613T212 499T205 354ZM460 762H447L306 912Q300 919 299 927T297 939Q297 954 309 961T330 969Q350 969 358 959T372 938L460 762Z"  />
<glyph unicode="&#xD3;" horiz-adv-x="833" d="M42 354Q42 439 76 508T165 626T285 701T417 728Q486 728 553 702T673 628T758 511T791 357Q791 282 761 215T679 96T560 15T417 -15Q343 -15 275 13T156 92T73 209T42 354ZM205 354Q205 250 217 182T254 73T320 16T417 -1Q491 -1 533 26T596 103T622 218T628 363Q628 433 624 496T598 608T535 685T417 714Q347 714 305 688T241 613T212 499T205 354ZM462 938Q467 949 475 959T504 969Q512 969 524 962T537 939Q537 935 536 927T528 912L387 762H374L462 938Z"  />
<glyph unicode="&#xD4;" horiz-adv-x="833" d="M42 354Q42 439 76 508T165 626T285 701T417 728Q486 728 553 702T673 628T758 511T791 357Q791 282 761 215T679 96T560 15T417 -15Q343 -15 275 13T156 92T73 209T42 354ZM205 354Q205 250 217 182T254 73T320 16T417 -1Q491 -1 533 26T596 103T622 218T628 363Q628 433 624 496T598 608T535 685T417 714Q347 714 305 688T241 613T212 499T205 354ZM381 959H454L562 762H550L417 889L284 762H272L381 959Z"  />
<glyph unicode="&#xD5;" horiz-adv-x="833" d="M42 354Q42 439 76 508T165 626T285 701T417 728Q486 728 553 702T673 628T758 511T791 357Q791 282 761 215T679 96T560 15T417 -15Q343 -15 275 13T156 92T73 209T42 354ZM205 354Q205 250 217 182T254 73T320 16T417 -1Q491 -1 533 26T596 103T622 218T628 363Q628 433 624 496T598 608T535 685T417 714Q347 714 305 688T241 613T212 499T205 354ZM275 802H261Q277 848 286 868T309 900Q318 908 333 913T360 918Q367 918 391 912T442 898T491 884T519 878Q529 878 536 884T549 899T556 914T559 924H573Q570 911 563 891T545 853T517 821T477 808Q462 808 440 814T393 828T348 842T315 849Q308 849 300 845T287 829L275 802Z"  />
<glyph unicode="&#xD6;" horiz-adv-x="833" d="M42 354Q42 439 76 508T165 626T285 701T417 728Q486 728 553 702T673 628T758 511T791 357Q791 282 761 215T679 96T560 15T417 -15Q343 -15 275 13T156 92T73 209T42 354ZM205 354Q205 250 217 182T254 73T320 16T417 -1Q491 -1 533 26T596 103T622 218T628 363Q628 433 624 496T598 608T535 685T417 714Q347 714 305 688T241 613T212 499T205 354ZM440 858Q440 884 459 903T504 922Q530 922 549 903T568 858Q568 832 549 813T504 794Q478 794 459 813T440 858ZM266 858Q266 884 285 903T330 922Q356 922 375 903T394 858Q394 832 375 813T330 794Q304 794 285 813T266 858Z"  />
<glyph unicode="&#xD7;" horiz-adv-x="593" d="M296 227L88 19L75 33L282 240L75 447L88 461L296 253L504 461L517 447L310 240L517 33L504 19L296 227Z"  />
<glyph unicode="&#xD8;" horiz-adv-x="833" d="M238 33Q195 56 159 89T97 164T57 253T42 354Q42 439 76 508T165 626T285 701T417 728Q498 728 577 691L626 788L640 781L591 685Q633 663 669 631T733 558T775 466T791 357Q791 282 761 215T679 96T560 15T417 -15Q329 -15 251 25L200 -75L186 -68L238 33ZM562 663Q538 688 503 701T417 714Q347 714 305 688T241 613T212 499T205 354Q205 248 217 180T257 70L562 663ZM267 56Q293 24 329 12T417 -1Q491 -1 533 26T596 103T622 218T628 363Q628 407 627 448T620 527T603 595T573 651L267 56Z"  />
<glyph unicode="&#xD9;" horiz-adv-x="778" d="M32 712H362V698H270V249Q270 202 274 158T295 78T344 21T432 -1Q486 -1 522 12T583 45T620 91T639 142T646 190T647 228V698H556V712H756V698H663V229Q663 213 662 189T654 137T633 83T592 34T524 -1T423 -15Q325 -15 267 6T177 63T135 142T125 231V698H32V712ZM462 762H449L308 912Q302 919 301 927T299 939Q299 954 311 961T332 969Q352 969 360 959T374 938L462 762Z"  />
<glyph unicode="&#xDA;" horiz-adv-x="778" d="M32 712H362V698H270V249Q270 202 274 158T295 78T344 21T432 -1Q486 -1 522 12T583 45T620 91T639 142T646 190T647 228V698H556V712H756V698H663V229Q663 213 662 189T654 137T633 83T592 34T524 -1T423 -15Q325 -15 267 6T177 63T135 142T125 231V698H32V712ZM464 938Q469 949 477 959T506 969Q514 969 526 962T539 939Q539 935 538 927T530 912L389 762H376L464 938Z"  />
<glyph unicode="&#xDB;" horiz-adv-x="778" d="M32 712H362V698H270V249Q270 202 274 158T295 78T344 21T432 -1Q486 -1 522 12T583 45T620 91T639 142T646 190T647 228V698H556V712H756V698H663V229Q663 213 662 189T654 137T633 83T592 34T524 -1T423 -15Q325 -15 267 6T177 63T135 142T125 231V698H32V712ZM383 959H456L564 762H552L419 889L286 762H274L383 959Z"  />
<glyph unicode="&#xDC;" horiz-adv-x="778" d="M32 712H362V698H270V249Q270 202 274 158T295 78T344 21T432 -1Q486 -1 522 12T583 45T620 91T639 142T646 190T647 228V698H556V712H756V698H663V229Q663 213 662 189T654 137T633 83T592 34T524 -1T423 -15Q325 -15 267 6T177 63T135 142T125 231V698H32V712ZM442 858Q442 884 461 903T506 922Q532 922 551 903T570 858Q570 832 551 813T506 794Q480 794 461 813T442 858ZM268 858Q268 884 287 903T332 922Q358 922 377 903T396 858Q396 832 377 813T332 794Q306 794 287 813T268 858Z"  />
<glyph unicode="&#xDD;" horiz-adv-x="704" d="M-16 712H307V698H228L432 349L616 698H529V712H720V698H633L440 331V14H533V0H203V14H295V293L63 698H-16V712ZM427 938Q432 949 440 959T469 969Q477 969 489 962T502 939Q502 935 501 927T493 912L352 762H339L427 938Z"  />
<glyph unicode="&#xDE;" horiz-adv-x="648" d="M271 14H363V0H34V14H126V698H34V712H363V698H271V596H330Q375 596 427 589T523 561T596 504T626 409Q626 370 607 336T549 276T451 235T312 220H271V14ZM271 234H302Q387 234 425 272T463 403Q463 490 430 536T310 582Q299 582 289 581T271 579V234Z"  />
<glyph unicode="&#xDF;" horiz-adv-x="648" d="M34 14H101V507Q101 555 112 592T158 664Q193 698 237 713T330 728Q380 728 410 715T456 682T478 643T483 608Q483 572 472 547T447 502T422 465T410 428Q410 403 424 383T460 344T507 306T554 265T590 215T605 153Q605 118 590 88T548 35T485 -1T409 -14Q388 -14 364 -10T319 4T286 32T272 77Q272 103 291 117T334 131Q351 131 368 122T385 93Q385 81 380 62T374 31Q374 13 387 7T416 0Q447 0 466 10T496 34T511 63T515 89Q515 118 500 142T463 188T415 230T367 271T330 314T315 364Q315 398 338 423T389 473T440 527T463 601Q463 631 453 651T428 684T395 702T361 708Q317 708 290 694T248 656T228 603T223 542V0H34V14Z"  />
<glyph unicode="&#xE0;" horiz-adv-x="519" d="M507 16Q500 5 490 -1T467 -10T442 -13T417 -14Q366 -14 342 4T311 55H309Q301 35 291 22T265 0T231 -11T184 -14Q160 -14 135 -9T89 7T55 38T42 86Q42 115 53 134T83 167T125 189T174 206Q214 218 240 227T280 245T299 266T305 297V358Q305 371 302 384T292 407T273 423T243 429Q220 429 203 419T186 380Q186 377 187 370T189 353T191 336T192 325Q192 310 185 302T168 289T148 285T131 284Q121 284 111 285T92 292T79 308T73 335Q73 361 87 381T126 415T180 436T244 443Q282 443 315 437T373 415T412 372T427 302V54Q427 35 432 21T460 6Q473 6 481 11T498 25L507 16ZM305 248H303Q301 242 296 237T276 224Q257 215 238 207T204 185T180 153T170 104Q170 92 171 76T179 45T199 20T235 9Q248 9 260 14T283 33T299 66T305 116V248ZM303 529H290L149 679Q143 686 142 694T140 706Q140 721 152 728T173 736Q193 736 201 726T215 705L303 529Z"  />
<glyph unicode="&#xE1;" horiz-adv-x="519" d="M507 16Q500 5 490 -1T467 -10T442 -13T417 -14Q366 -14 342 4T311 55H309Q301 35 291 22T265 0T231 -11T184 -14Q160 -14 135 -9T89 7T55 38T42 86Q42 115 53 134T83 167T125 189T174 206Q214 218 240 227T280 245T299 266T305 297V358Q305 371 302 384T292 407T273 423T243 429Q220 429 203 419T186 380Q186 377 187 370T189 353T191 336T192 325Q192 310 185 302T168 289T148 285T131 284Q121 284 111 285T92 292T79 308T73 335Q73 361 87 381T126 415T180 436T244 443Q282 443 315 437T373 415T412 372T427 302V54Q427 35 432 21T460 6Q473 6 481 11T498 25L507 16ZM305 248H303Q301 242 296 237T276 224Q257 215 238 207T204 185T180 153T170 104Q170 92 171 76T179 45T199 20T235 9Q248 9 260 14T283 33T299 66T305 116V248ZM305 705Q310 716 318 726T347 736Q355 736 367 729T380 706Q380 702 379 694T371 679L230 529H217L305 705Z"  />
<glyph unicode="&#xE2;" horiz-adv-x="519" d="M507 16Q500 5 490 -1T467 -10T442 -13T417 -14Q366 -14 342 4T311 55H309Q301 35 291 22T265 0T231 -11T184 -14Q160 -14 135 -9T89 7T55 38T42 86Q42 115 53 134T83 167T125 189T174 206Q214 218 240 227T280 245T299 266T305 297V358Q305 371 302 384T292 407T273 423T243 429Q220 429 203 419T186 380Q186 377 187 370T189 353T191 336T192 325Q192 310 185 302T168 289T148 285T131 284Q121 284 111 285T92 292T79 308T73 335Q73 361 87 381T126 415T180 436T244 443Q282 443 315 437T373 415T412 372T427 302V54Q427 35 432 21T460 6Q473 6 481 11T498 25L507 16ZM305 248H303Q301 242 296 237T276 224Q257 215 238 207T204 185T180 153T170 104Q170 92 171 76T179 45T199 20T235 9Q248 9 260 14T283 33T299 66T305 116V248ZM224 726H297L405 529H393L260 656L127 529H115L224 726Z"  />
<glyph unicode="&#xE3;" horiz-adv-x="519" d="M507 16Q500 5 490 -1T467 -10T442 -13T417 -14Q366 -14 342 4T311 55H309Q301 35 291 22T265 0T231 -11T184 -14Q160 -14 135 -9T89 7T55 38T42 86Q42 115 53 134T83 167T125 189T174 206Q214 218 240 227T280 245T299 266T305 297V358Q305 371 302 384T292 407T273 423T243 429Q220 429 203 419T186 380Q186 377 187 370T189 353T191 336T192 325Q192 310 185 302T168 289T148 285T131 284Q121 284 111 285T92 292T79 308T73 335Q73 361 87 381T126 415T180 436T244 443Q282 443 315 437T373 415T412 372T427 302V54Q427 35 432 21T460 6Q473 6 481 11T498 25L507 16ZM305 248H303Q301 242 296 237T276 224Q257 215 238 207T204 185T180 153T170 104Q170 92 171 76T179 45T199 20T235 9Q248 9 260 14T283 33T299 66T305 116V248ZM118 569H104Q120 615 129 635T152 667Q161 675 176 680T203 685Q210 685 234 679T285 665T334 651T362 645Q372 645 379 651T392 666T399 681T402 691H416Q413 678 406 658T388 620T360 588T320 575Q305 575 283 581T236 595T191 609T158 616Q151 616 143 612T130 596L118 569Z"  />
<glyph unicode="&#xE4;" horiz-adv-x="519" d="M507 16Q500 5 490 -1T467 -10T442 -13T417 -14Q366 -14 342 4T311 55H309Q301 35 291 22T265 0T231 -11T184 -14Q160 -14 135 -9T89 7T55 38T42 86Q42 115 53 134T83 167T125 189T174 206Q214 218 240 227T280 245T299 266T305 297V358Q305 371 302 384T292 407T273 423T243 429Q220 429 203 419T186 380Q186 377 187 370T189 353T191 336T192 325Q192 310 185 302T168 289T148 285T131 284Q121 284 111 285T92 292T79 308T73 335Q73 361 87 381T126 415T180 436T244 443Q282 443 315 437T373 415T412 372T427 302V54Q427 35 432 21T460 6Q473 6 481 11T498 25L507 16ZM305 248H303Q301 242 296 237T276 224Q257 215 238 207T204 185T180 153T170 104Q170 92 171 76T179 45T199 20T235 9Q248 9 260 14T283 33T299 66T305 116V248ZM283 644Q283 670 302 689T347 708Q373 708 392 689T411 644Q411 618 392 599T347 580Q321 580 302 599T283 644ZM109 644Q109 670 128 689T173 708Q199 708 218 689T237 644Q237 618 218 599T173 580Q147 580 128 599T109 644Z"  />
<glyph unicode="&#xE5;" horiz-adv-x="519" d="M507 16Q500 5 490 -1T467 -10T442 -13T417 -14Q366 -14 342 4T311 55H309Q301 35 291 22T265 0T231 -11T184 -14Q160 -14 135 -9T89 7T55 38T42 86Q42 115 53 134T83 167T125 189T174 206Q214 218 240 227T280 245T299 266T305 297V358Q305 371 302 384T292 407T273 423T243 429Q220 429 203 419T186 380Q186 377 187 370T189 353T191 336T192 325Q192 310 185 302T168 289T148 285T131 284Q121 284 111 285T92 292T79 308T73 335Q73 361 87 381T126 415T180 436T244 443Q282 443 315 437T373 415T412 372T427 302V54Q427 35 432 21T460 6Q473 6 481 11T498 25L507 16ZM305 248H303Q301 242 296 237T276 224Q257 215 238 207T204 185T180 153T170 104Q170 92 171 76T179 45T199 20T235 9Q248 9 260 14T283 33T299 66T305 116V248ZM365 629Q365 613 359 596T339 564T307 540T260 530Q233 530 214 539T181 563T162 595T155 629Q155 645 161 662T181 694T213 718T260 728Q287 728 306 719T339 695T358 663T365 629ZM260 717Q231 717 222 694T213 629Q213 587 222 564T260 541Q289 541 298 564T307 629Q307 671 298 694T260 717Z"  />
<glyph unicode="&#xE6;" horiz-adv-x="741" d="M31 86Q31 115 42 134T72 167T114 189T163 206Q206 218 232 227T274 245T294 266T300 297V370Q300 376 299 386T291 405T273 422T238 429Q215 429 198 419T181 380Q181 377 182 370T184 353T186 336T187 325Q187 310 180 302T163 289T143 285T126 284Q116 284 106 285T87 292T74 308T68 335Q68 361 82 381T121 415T175 436T239 443Q270 443 292 440T332 430T363 416T389 399Q414 419 444 431T508 443Q541 443 575 432T637 398T683 339T701 251H422V206Q422 170 425 134T439 68T472 19T533 0Q573 0 600 15T645 49T671 88T681 116L695 111Q690 93 678 71T645 30T593 -1T518 -14Q446 -14 393 11T314 98H312Q310 78 304 58T283 22T241 -4T173 -14Q149 -14 124 -9T78 7T44 38T31 86ZM566 265V332Q566 342 565 358T558 391T539 418T501 429Q473 429 458 413T435 373T425 319T422 265H566ZM300 248H298Q296 242 289 238T275 230Q254 216 233 207T196 185T169 155T159 104Q159 92 160 76T168 45T188 20T224 9Q237 9 250 14T275 33T293 66T300 116V248Z"  />
<glyph unicode="&#xE7;" horiz-adv-x="481" d="M190 -79L253 -11Q226 -9 189 2T117 38T59 106T35 215Q35 251 50 291T96 364T173 420T281 443Q318 443 349 435T403 413T438 378T451 332Q451 299 434 286T386 272Q363 272 344 280T324 316Q324 320 326 330T331 351T336 372T339 386Q339 406 322 417T278 429Q242 429 221 412T189 367T174 301T170 221Q170 182 173 143T189 72T226 20T295 0Q336 0 364 14T409 48T435 87T445 116L459 111Q454 94 444 72T413 31T361 -1T282 -14H271L213 -72L215 -74Q226 -69 240 -65T267 -60Q285 -60 301 -66T330 -84T350 -111T358 -145Q358 -169 349 -186T323 -216T287 -234T245 -240Q219 -240 202 -233T165 -210L174 -198Q190 -209 201 -214T232 -220Q247 -220 256 -214T270 -197T277 -174T279 -149Q279 -139 279 -127T274 -106T263 -90T241 -83Q221 -83 204 -93L190 -79Z"  />
<glyph unicode="&#xE8;" horiz-adv-x="500" d="M170 251V206Q170 170 173 134T189 68T227 19T297 0Q337 0 364 15T409 49T435 88T445 116L459 111Q454 93 442 71T409 30T357 -1T282 -14Q230 -14 185 2T107 47T54 119T35 216Q35 259 53 300T102 372T176 423T268 443Q302 443 337 432T401 398T447 339T465 251H170ZM330 265V332Q330 342 329 358T322 391T303 418T265 429Q231 429 213 413T185 373T174 319T170 265H330ZM293 529H280L139 679Q133 686 132 694T130 706Q130 721 142 728T163 736Q183 736 191 726T205 705L293 529Z"  />
<glyph unicode="&#xE9;" horiz-adv-x="500" d="M170 251V206Q170 170 173 134T189 68T227 19T297 0Q337 0 364 15T409 49T435 88T445 116L459 111Q454 93 442 71T409 30T357 -1T282 -14Q230 -14 185 2T107 47T54 119T35 216Q35 259 53 300T102 372T176 423T268 443Q302 443 337 432T401 398T447 339T465 251H170ZM330 265V332Q330 342 329 358T322 391T303 418T265 429Q231 429 213 413T185 373T174 319T170 265H330ZM295 705Q300 716 308 726T337 736Q345 736 357 729T370 706Q370 702 369 694T361 679L220 529H207L295 705Z"  />
<glyph unicode="&#xEA;" horiz-adv-x="500" d="M170 251V206Q170 170 173 134T189 68T227 19T297 0Q337 0 364 15T409 49T435 88T445 116L459 111Q454 93 442 71T409 30T357 -1T282 -14Q230 -14 185 2T107 47T54 119T35 216Q35 259 53 300T102 372T176 423T268 443Q302 443 337 432T401 398T447 339T465 251H170ZM330 265V332Q330 342 329 358T322 391T303 418T265 429Q231 429 213 413T185 373T174 319T170 265H330ZM214 726H287L395 529H383L250 656L117 529H105L214 726Z"  />
<glyph unicode="&#xEB;" horiz-adv-x="500" d="M170 251V206Q170 170 173 134T189 68T227 19T297 0Q337 0 364 15T409 49T435 88T445 116L459 111Q454 93 442 71T409 30T357 -1T282 -14Q230 -14 185 2T107 47T54 119T35 216Q35 259 53 300T102 372T176 423T268 443Q302 443 337 432T401 398T447 339T465 251H170ZM330 265V332Q330 342 329 358T322 391T303 418T265 429Q231 429 213 413T185 373T174 319T170 265H330ZM273 644Q273 670 292 689T337 708Q363 708 382 689T401 644Q401 618 382 599T337 580Q311 580 292 599T273 644ZM99 644Q99 670 118 689T163 708Q189 708 208 689T227 644Q227 618 208 599T163 580Q137 580 118 599T99 644Z"  />
<glyph unicode="&#xEC;" horiz-adv-x="315" d="M36 429H225V14H292V0H36V14H103V415H36V429ZM201 529H188L47 679Q41 686 40 694T38 706Q38 721 50 728T71 736Q91 736 99 726T113 705L201 529Z"  />
<glyph unicode="&#xED;" horiz-adv-x="315" d="M36 429H225V14H292V0H36V14H103V415H36V429ZM203 705Q208 716 216 726T245 736Q253 736 265 729T278 706Q278 702 277 694T269 679L128 529H115L203 705Z"  />
<glyph unicode="&#xEE;" horiz-adv-x="315" d="M36 429H225V14H292V0H36V14H103V415H36V429ZM122 726H195L303 529H291L158 656L25 529H13L122 726Z"  />
<glyph unicode="&#xEF;" horiz-adv-x="315" d="M36 429H225V14H292V0H36V14H103V415H36V429ZM181 644Q181 670 200 689T245 708Q271 708 290 689T309 644Q309 618 290 599T245 580Q219 580 200 599T181 644ZM7 644Q7 670 26 689T71 708Q97 708 116 689T135 644Q135 618 116 599T71 580Q45 580 26 599T7 644Z"  />
<glyph unicode="&#xF0;" horiz-adv-x="556" d="M247 613Q223 638 194 658T124 698L132 712Q159 701 180 692T218 673T251 655T282 636L398 712L406 701L294 627Q410 547 466 453T522 245Q522 185 508 143T470 72T419 26T363 0T313 -11T278 -14Q226 -14 182 4T104 54T53 126T34 215Q34 261 52 302T104 375T181 424T278 443Q307 443 324 436T361 416Q359 424 352 443T332 489T301 544T256 603L141 527L133 538L247 613ZM169 215Q169 174 171 136T184 67T217 19T278 0Q317 0 339 18T371 67T384 135T387 215Q387 255 385 293T372 362T339 410T278 429Q239 429 217 411T185 362T172 294T169 215Z"  />
<glyph unicode="&#xF1;" horiz-adv-x="630" d="M42 14H108V415H42V429H228V329H230Q234 338 244 356T273 393T322 424T397 438Q462 438 499 400T536 296V14H603V0H352V14H414V330Q414 372 397 391T351 411Q327 411 305 400T267 365T240 308T230 228V14H293V0H42V14ZM173 569H159Q175 615 184 635T207 667Q216 675 231 680T258 685Q265 685 289 679T340 665T389 651T417 645Q427 645 434 651T447 666T454 681T457 691H471Q468 678 461 658T443 620T415 588T375 575Q360 575 338 581T291 595T246 609T213 616Q206 616 198 612T185 596L173 569Z"  />
<glyph unicode="&#xF2;" horiz-adv-x="556" d="M278 443Q330 443 374 425T452 375T503 303T522 215Q522 168 504 127T452 54T375 5T278 -14Q226 -14 182 4T104 54T53 126T34 215Q34 261 52 302T104 375T181 424T278 443ZM278 0Q317 0 339 18T371 67T384 135T387 215Q387 255 385 293T372 362T339 410T278 429Q239 429 217 411T185 362T172 294T169 215Q169 174 171 136T184 67T217 19T278 0ZM321 529H308L167 679Q161 686 160 694T158 706Q158 721 170 728T191 736Q211 736 219 726T233 705L321 529Z"  />
<glyph unicode="&#xF3;" horiz-adv-x="556" d="M278 443Q330 443 374 425T452 375T503 303T522 215Q522 168 504 127T452 54T375 5T278 -14Q226 -14 182 4T104 54T53 126T34 215Q34 261 52 302T104 375T181 424T278 443ZM278 0Q317 0 339 18T371 67T384 135T387 215Q387 255 385 293T372 362T339 410T278 429Q239 429 217 411T185 362T172 294T169 215Q169 174 171 136T184 67T217 19T278 0ZM323 705Q328 716 336 726T365 736Q373 736 385 729T398 706Q398 702 397 694T389 679L248 529H235L323 705Z"  />
<glyph unicode="&#xF4;" horiz-adv-x="556" d="M278 443Q330 443 374 425T452 375T503 303T522 215Q522 168 504 127T452 54T375 5T278 -14Q226 -14 182 4T104 54T53 126T34 215Q34 261 52 302T104 375T181 424T278 443ZM278 0Q317 0 339 18T371 67T384 135T387 215Q387 255 385 293T372 362T339 410T278 429Q239 429 217 411T185 362T172 294T169 215Q169 174 171 136T184 67T217 19T278 0ZM242 726H315L423 529H411L278 656L145 529H133L242 726Z"  />
<glyph unicode="&#xF5;" horiz-adv-x="556" d="M278 443Q330 443 374 425T452 375T503 303T522 215Q522 168 504 127T452 54T375 5T278 -14Q226 -14 182 4T104 54T53 126T34 215Q34 261 52 302T104 375T181 424T278 443ZM278 0Q317 0 339 18T371 67T384 135T387 215Q387 255 385 293T372 362T339 410T278 429Q239 429 217 411T185 362T172 294T169 215Q169 174 171 136T184 67T217 19T278 0ZM136 569H122Q138 615 147 635T170 667Q179 675 194 680T221 685Q228 685 252 679T303 665T352 651T380 645Q390 645 397 651T410 666T417 681T420 691H434Q431 678 424 658T406 620T378 588T338 575Q323 575 301 581T254 595T209 609T176 616Q169 616 161 612T148 596L136 569Z"  />
<glyph unicode="&#xF6;" horiz-adv-x="556" d="M278 443Q330 443 374 425T452 375T503 303T522 215Q522 168 504 127T452 54T375 5T278 -14Q226 -14 182 4T104 54T53 126T34 215Q34 261 52 302T104 375T181 424T278 443ZM278 0Q317 0 339 18T371 67T384 135T387 215Q387 255 385 293T372 362T339 410T278 429Q239 429 217 411T185 362T172 294T169 215Q169 174 171 136T184 67T217 19T278 0ZM301 644Q301 670 320 689T365 708Q391 708 410 689T429 644Q429 618 410 599T365 580Q339 580 320 599T301 644ZM127 644Q127 670 146 689T191 708Q217 708 236 689T255 644Q255 618 236 599T191 580Q165 580 146 599T127 644Z"  />
<glyph unicode="&#xF7;" horiz-adv-x="650" d="M325 389Q302 389 288 404T273 444Q273 469 287 484T325 499Q349 499 363 484T378 444Q378 420 364 405T325 389ZM75 238V296H576V238H75ZM325 37Q302 37 288 52T273 91Q273 116 287 131T325 147Q349 147 363 132T378 91Q378 68 364 53T325 37Z"  />
<glyph unicode="&#xF8;" horiz-adv-x="556" d="M160 16Q103 45 69 98T34 215Q34 261 52 302T104 375T181 424T278 443Q327 443 371 425L412 504L426 498L385 419Q447 392 484 337T522 215Q522 168 504 127T452 54T375 5T278 -14Q219 -14 173 9L131 -73L117 -67L160 16ZM355 393Q343 410 325 419T278 429Q239 429 217 411T185 362T172 294T169 215Q169 173 172 135T187 68L355 393ZM194 49Q205 26 225 13T278 0Q317 0 339 18T371 67T384 135T387 215Q387 261 384 304T364 378L194 49Z"  />
<glyph unicode="&#xF9;" horiz-adv-x="611" d="M27 429H216V112Q216 74 231 48T284 21Q307 21 326 32T358 61T379 105T387 157V415H321V429H509V14H575V0H389V81H387Q379 59 363 43T327 15T283 -3T238 -9Q168 -9 131 22T94 126V415H27V429ZM349 529H336L195 679Q189 686 188 694T186 706Q186 721 198 728T219 736Q239 736 247 726T261 705L349 529Z"  />
<glyph unicode="&#xFA;" horiz-adv-x="611" d="M27 429H216V112Q216 74 231 48T284 21Q307 21 326 32T358 61T379 105T387 157V415H321V429H509V14H575V0H389V81H387Q379 59 363 43T327 15T283 -3T238 -9Q168 -9 131 22T94 126V415H27V429ZM351 705Q356 716 364 726T393 736Q401 736 413 729T426 706Q426 702 425 694T417 679L276 529H263L351 705Z"  />
<glyph unicode="&#xFB;" horiz-adv-x="611" d="M27 429H216V112Q216 74 231 48T284 21Q307 21 326 32T358 61T379 105T387 157V415H321V429H509V14H575V0H389V81H387Q379 59 363 43T327 15T283 -3T238 -9Q168 -9 131 22T94 126V415H27V429ZM270 726H343L451 529H439L306 656L173 529H161L270 726Z"  />
<glyph unicode="&#xFC;" horiz-adv-x="611" d="M27 429H216V112Q216 74 231 48T284 21Q307 21 326 32T358 61T379 105T387 157V415H321V429H509V14H575V0H389V81H387Q379 59 363 43T327 15T283 -3T238 -9Q168 -9 131 22T94 126V415H27V429ZM325 644Q325 670 344 689T389 708Q415 708 434 689T453 644Q453 618 434 599T389 580Q363 580 344 599T325 644ZM151 644Q151 670 170 689T215 708Q241 708 260 689T279 644Q279 618 260 599T215 580Q189 580 170 599T151 644Z"  />
<glyph unicode="&#xFD;" horiz-adv-x="481" d="M299 126L426 415H343V429H488V415H442Q386 295 347 200T277 31T225 -100T182 -200Q162 -244 137 -265T70 -287Q25 -287 -4 -266T-33 -206Q-33 -177 -14 -164T31 -151Q50 -151 67 -161T84 -193Q84 -211 78 -222T71 -248Q71 -259 77 -264T91 -270Q109 -270 124 -257T152 -225T174 -183T191 -143L234 -36L46 415H-8V429H247V415H177L299 126ZM310 705Q315 716 323 726T352 736Q360 736 372 729T385 706Q385 702 384 694T376 679L235 529H222L310 705Z"  />
<glyph unicode="&#xFE;" horiz-adv-x="593" d="M97 707H31V721H219V359H221Q236 400 264 421T337 443Q395 443 436 421T503 364T542 290T555 215Q555 170 539 129T495 56T426 5T337 -14Q291 -14 263 11T221 72H219V-266H287V-280H31V-266H97V707ZM219 214Q219 182 221 145T236 76T271 22T337 0Q365 0 381 15T406 58T417 125T420 214Q420 274 416 315T400 382T372 418T329 429Q292 429 270 408T237 355T223 285T219 214Z"  />
<glyph unicode="&#xFF;" horiz-adv-x="481" d="M299 126L426 415H343V429H488V415H442Q386 295 347 200T277 31T225 -100T182 -200Q162 -244 137 -265T70 -287Q25 -287 -4 -266T-33 -206Q-33 -177 -14 -164T31 -151Q50 -151 67 -161T84 -193Q84 -211 78 -222T71 -248Q71 -259 77 -264T91 -270Q109 -270 124 -257T152 -225T174 -183T191 -143L234 -36L46 415H-8V429H247V415H177L299 126ZM274 644Q274 670 293 689T338 708Q364 708 383 689T402 644Q402 618 383 599T338 580Q312 580 293 599T274 644ZM100 644Q100 670 119 689T164 708Q190 708 209 689T228 644Q228 618 209 599T164 580Q138 580 119 599T100 644Z"  />
<glyph unicode="&#x131;" horiz-adv-x="315" d="M36 429H225V14H292V0H36V14H103V415H36V429Z"  />
<glyph unicode="&#x152;" horiz-adv-x="1093" d="M1059 0H583Q544 0 505 -3T427 -6Q330 -6 259 30T141 119T72 235T49 348Q49 427 81 495T166 612T286 690T426 718Q472 718 517 715T608 712H1018V541H1005Q1000 557 988 584T955 636T899 679T816 698H657V389H713Q750 389 775 399T818 429T846 476T864 538H877V227H864Q857 256 848 283T822 330T782 363T724 375H657V14H821Q867 14 904 29T969 73T1017 138T1046 219H1059V0ZM512 695Q491 699 464 701T425 704Q349 704 307 675T243 596T217 482T212 350Q212 254 223 189T259 83T326 26T427 8Q450 8 474 11T512 17V695Z"  />
<glyph unicode="&#x153;" horiz-adv-x="852" d="M521 251V206Q521 170 524 134T540 68T578 19T648 0Q688 0 715 15T760 49T786 88T796 116L810 111Q805 93 793 71T760 30T709 -1T635 -14Q580 -14 534 3T453 54Q419 22 375 4T280 -14Q228 -14 184 4T106 54T55 126T36 215Q36 261 54 302T106 375T183 424T280 443Q334 443 379 424T456 371Q487 403 529 423T621 443Q655 443 689 432T752 398T798 339T816 251H521ZM681 265V332Q681 342 680 358T673 391T654 418T616 429Q582 429 564 413T536 373T525 319T521 265H681ZM280 0Q319 0 341 18T373 67T386 135T389 215Q389 255 387 293T374 362T341 410T280 429Q241 429 219 411T187 362T174 294T171 215Q171 174 173 136T186 67T219 19T280 0Z"  />
<glyph unicode="&#x160;" horiz-adv-x="648" d="M63 222H78Q80 210 85 191T100 149T124 103T159 59Q182 36 203 24T244 7T281 0T314 -1Q366 -1 400 16T454 57T482 107T490 154Q490 191 473 215T426 255T360 282T284 305T208 332T142 371T96 432T78 522Q78 562 96 599T146 664T222 710T319 728Q352 728 377 722T421 710T454 697T481 691Q495 691 499 695T509 712H525V522H512Q500 556 487 590T452 652T399 697T318 714Q278 714 248 703T196 674T164 634T153 589Q153 554 171 531T220 492T288 463T367 439T446 410T515 370T563 312T582 228Q582 179 562 135T506 58T418 5T306 -15Q275 -15 245 -9T188 4T141 17T110 23Q96 23 90 19T79 0H63V222ZM360 762H287L179 959H191L324 832L457 959H469L360 762Z"  />
<glyph unicode="&#x161;" horiz-adv-x="426" d="M44 145H58Q70 117 82 91T111 45T153 12T212 0Q221 0 236 1T265 9T290 32T301 77Q301 86 299 95T288 115T265 134T222 154L141 184Q127 189 111 198T82 220T59 253T50 300Q50 329 62 355T95 400T147 431T214 443Q233 443 249 439T279 431T303 422T320 418Q331 418 334 422T339 431H353V309H340Q330 333 320 355T295 393T259 419T207 429Q190 429 175 425T147 412T127 390T119 360Q119 353 121 344T130 326T151 307T192 288L277 259Q331 240 359 209T387 130Q387 97 373 71T335 25T280 -4T216 -14Q198 -14 177 -10T137 0T101 9T76 14Q68 14 65 11T58 0H44V145ZM249 529H176L68 726H80L213 599L346 726H358L249 529Z"  />
<glyph unicode="&#x178;" horiz-adv-x="704" d="M-16 712H307V698H228L432 349L616 698H529V712H720V698H633L440 331V14H533V0H203V14H295V293L63 698H-16V712ZM405 858Q405 884 424 903T469 922Q495 922 514 903T533 858Q533 832 514 813T469 794Q443 794 424 813T405 858ZM231 858Q231 884 250 903T295 922Q321 922 340 903T359 858Q359 832 340 813T295 794Q269 794 250 813T231 858Z"  />
<glyph unicode="&#x17D;" horiz-adv-x="685" d="M436 698H297Q256 698 227 687T175 656T135 608T103 545H90V712H608L204 14H385Q424 14 461 25T530 61T585 127T622 226H635V0H34L436 698ZM379 762H306L198 959H210L343 832L476 959H488L379 762Z"  />
<glyph unicode="&#x17E;" horiz-adv-x="463" d="M277 415H188Q161 415 142 409T109 389T83 356T60 310H49L64 429H421L179 14H301Q332 14 352 25T386 53T408 93T425 138H436L425 0H34L277 415ZM268 529H195L87 726H99L232 599L365 726H377L268 529Z"  />
<glyph unicode="&#x192;" horiz-adv-x="556" d="M64 354H190Q199 424 218 491T269 610T345 695T446 728Q466 728 487 723T526 707T555 678T566 635Q566 620 560 610T544 594T525 586T508 584Q453 584 453 623Q453 635 456 643T463 659T470 672T473 688Q473 697 468 702T456 710T443 713T435 714Q405 714 388 700T360 662T344 610T336 550L321 381L318 354H434V340H317Q311 287 304 235T288 136T270 49T252 -18Q237 -64 223 -111T188 -195T140 -256T72 -280Q55 -280 37 -275T3 -260T-23 -235T-34 -200Q-34 -176 -18 -164T21 -151Q38 -151 52 -159T67 -184Q67 -189 65 -197T59 -213T53 -230T50 -243Q50 -245 50 -248T54 -256T65 -263T84 -266Q126 -266 145 -219T166 -90Q169 19 173 125T188 340H64V354Z"  />
<glyph unicode="&#x2C6;" horiz-adv-x="278" d="M103 726H176L284 529H272L139 656L6 529H-6L103 726Z"  />
<glyph unicode="&#x2C7;" horiz-adv-x="278" d="M175 529H102L-6 726H6L139 599L272 726H284L175 529Z"  />
<glyph unicode="&#x2DA;" horiz-adv-x="278" d="M244 629Q244 613 238 596T218 564T186 540T139 530Q112 530 93 539T60 563T41 595T34 629Q34 645 40 662T60 694T92 718T139 728Q166 728 185 719T218 695T237 663T244 629ZM139 717Q110 717 101 694T92 629Q92 587 101 564T139 541Q168 541 177 564T186 629Q186 671 177 694T139 717Z"  />
<glyph unicode="&#x2DC;" horiz-adv-x="278" d="M-3 569H-17Q-1 615 8 635T31 667Q40 675 55 680T82 685Q89 685 113 679T164 665T213 651T241 645Q251 645 258 651T271 666T278 681T281 691H295Q292 678 285 658T267 620T239 588T199 575Q184 575 162 581T115 595T70 609T37 616Q30 616 22 612T9 596L-3 569Z"  />
<glyph unicode="&#x2013;" horiz-adv-x="500" d="M0 225H500V211H0V225Z"  />
<glyph unicode="&#x2014;" horiz-adv-x="1000" d="M130 225H870V211H130V225Z"  />
<glyph unicode="&#x2018;" horiz-adv-x="278" d="M204 715Q155 681 126 653T97 588Q97 572 102 562T112 547Q121 553 132 555T154 557Q164 557 176 553T199 541T216 519T223 486Q223 467 216 454T198 432T174 419T147 415Q109 415 82 446T55 534Q55 573 69 603T104 656T151 697T197 728L204 715Z"  />
<glyph unicode="&#x2019;" horiz-adv-x="278" d="M74 428Q123 462 152 490T181 555Q181 571 176 581T166 596Q157 590 146 588T124 586Q113 586 101 590T79 602T62 624T55 657Q55 676 62 689T80 711T104 724T131 728Q169 728 196 697T223 609Q223 570 209 540T174 487T127 446T81 415L74 428Z"  />
<glyph unicode="&#x201A;" horiz-adv-x="278" d="M74 -168Q123 -134 152 -106T181 -41Q181 -25 176 -15T166 0Q157 -6 146 -8T124 -10Q113 -10 101 -6T79 6T62 28T55 61Q55 80 62 93T80 115T104 128T131 132Q169 132 196 101T223 13Q223 -26 209 -56T174 -109T127 -150T81 -181L74 -168Z"  />
<glyph unicode="&#x201C;" horiz-adv-x="463" d="M400 715Q351 681 322 653T293 588Q293 572 298 562T308 547Q317 553 328 555T350 557Q360 557 372 553T395 541T412 519T419 486Q419 467 412 454T394 432T370 419T343 415Q305 415 278 446T251 534Q251 573 265 603T300 656T347 697T393 728L400 715ZM193 715Q144 681 115 653T86 588Q86 572 91 562T101 547Q110 553 121 555T143 557Q153 557 165 553T188 541T205 519T212 486Q212 467 205 454T187 432T163 419T136 415Q98 415 71 446T44 534Q44 573 58 603T93 656T140 697T186 728L193 715Z"  />
<glyph unicode="&#x201D;" horiz-adv-x="463" d="M270 428Q319 462 348 490T377 555Q377 571 372 581T362 596Q353 590 342 588T320 586Q309 586 297 590T275 602T258 624T251 657Q251 676 258 689T276 711T300 724T327 728Q365 728 392 697T419 609Q419 570 405 540T370 487T323 446T277 415L270 428ZM63 428Q112 462 141 490T170 555Q170 571 165 581T155 596Q146 590 135 588T113 586Q102 586 90 590T68 602T51 624T44 657Q44 676 51 689T69 711T93 724T120 728Q158 728 185 697T212 609Q212 570 198 540T163 487T116 446T70 415L63 428Z"  />
<glyph unicode="&#x201E;" horiz-adv-x="463" d="M270 -168Q319 -134 348 -106T377 -41Q377 -25 372 -15T362 0Q353 -6 342 -8T320 -10Q309 -10 297 -6T275 6T258 28T251 61Q251 80 258 93T276 115T300 128T327 132Q365 132 392 101T419 13Q419 -26 405 -56T370 -109T323 -150T277 -181L270 -168ZM63 -168Q112 -134 141 -106T170 -41Q170 -25 165 -15T155 0Q146 -6 135 -8T113 -10Q102 -10 90 -6T68 6T51 28T44 61Q44 80 51 93T69 115T93 128T120 132Q158 132 185 101T212 13Q212 -26 198 -56T163 -109T116 -150T70 -181L63 -168Z"  />
<glyph unicode="&#x2020;" horiz-adv-x="556" d="M211 667Q211 676 214 686T226 706T247 721T279 728Q298 728 310 722T331 706T342 687T346 667Q346 659 345 654T341 640T332 618T314 584Q304 563 299 549T291 521T288 495T287 464Q306 464 329 465T370 478Q375 481 385 488T407 503T432 516T456 522Q485 522 503 503T522 457Q522 433 505 413T459 392Q447 392 439 394T423 401T408 412T390 424Q374 433 362 438T338 446T314 449T287 450Q287 418 289 384T300 319T323 260T367 216Q357 208 343 195T317 158T296 97T287 3V-280H270V3Q270 59 262 96T241 158T214 195T190 216Q218 233 233 260T257 318T267 384T270 450Q240 451 219 447T166 424Q156 418 149 412T134 402T118 395T97 392Q68 392 51 412T34 457Q34 483 52 502T100 522Q111 522 124 517T149 504T171 489T186 478Q203 467 226 466T270 464Q270 482 270 495T267 521T259 548T243 584Q232 605 226 618T216 639T212 653T211 667Z"  />
<glyph unicode="&#x2021;" horiz-adv-x="556" d="M279 728Q298 728 310 722T331 706T342 687T346 667Q346 659 345 654T341 640T332 618T314 584Q304 563 299 549T291 521T288 495T287 464Q306 464 329 465T370 478Q375 481 385 488T407 503T432 516T456 522Q485 522 503 503T522 457Q522 433 505 413T459 392Q447 392 439 394T423 401T408 412T390 424Q374 433 362 438T338 446T314 449T287 450Q287 418 289 385T300 320T323 264T367 224Q339 210 324 185T300 128T290 63T287 -2Q302 -2 314 -2T337 1T361 9T390 24Q400 30 407 35T422 45T438 53T459 56Q488 56 505 36T522 -9Q522 -35 504 -54T456 -74Q445 -74 432 -69T407 -56T385 -41T370 -30Q353 -19 330 -18T287 -16Q287 -34 287 -47T290 -73T298 -100T314 -136Q325 -157 331 -170T341 -191T345 -206T346 -219Q346 -228 343 -238T331 -258T311 -273T279 -280Q260 -280 247 -274T226 -258T215 -239T211 -219Q211 -212 212 -206T216 -192T225 -170T243 -136Q253 -115 258 -101T266 -73T269 -47T270 -16Q250 -16 227 -17T186 -30Q181 -33 171 -40T149 -55T124 -68T100 -74Q71 -74 53 -55T34 -9Q34 15 51 35T97 56Q109 56 117 53T133 46T148 36T166 24Q197 5 218 1T270 -2Q270 29 268 63T257 128T234 184T190 224Q218 238 233 263T257 320T267 384T270 450Q240 451 219 447T166 424Q156 418 149 412T134 402T118 395T97 392Q68 392 51 412T34 457Q34 483 52 502T100 522Q111 522 124 517T149 504T171 489T186 478Q203 467 226 466T270 464Q270 482 270 495T267 521T259 548T243 584Q232 605 226 618T216 639T212 653T211 667Q211 676 214 686T226 706T247 721T279 728Z"  />
<glyph unicode="&#x2022;" horiz-adv-x="500" d="M72 356Q72 393 86 425T124 482T180 520T250 534Q287 534 319 520T376 482T414 426T428 356Q428 319 414 287T376 230T320 192T250 178Q213 178 181 192T124 230T86 286T72 356Z"  />
<glyph unicode="&#x2026;" horiz-adv-x="1000" d="M762 61Q762 90 783 111T833 132Q862 132 883 111T904 61Q904 32 883 11T833 -10Q804 -10 783 11T762 61ZM429 61Q429 90 450 111T500 132Q529 132 550 111T571 61Q571 32 550 11T500 -10Q471 -10 450 11T429 61ZM96 61Q96 90 117 111T167 132Q196 132 217 111T238 61Q238 32 217 11T167 -10Q138 -10 117 11T96 61Z"  />
<glyph unicode="&#x2030;" horiz-adv-x="1037" d="M513 728L533 719L157 -14L137 -5L513 728ZM205 436Q173 436 145 446T96 476T62 522T49 582Q49 615 61 641T95 687T145 717T205 728Q236 728 264 718T314 688T348 642T361 582Q361 549 349 523T315 477T265 447T205 436ZM205 450Q231 450 245 461T266 490T274 532T275 582Q275 608 274 632T267 674T246 703T205 714Q179 714 165 703T144 674T136 632T135 582Q135 556 136 532T143 490T164 461T205 450ZM832 -14Q800 -14 772 -4T723 26T689 72T676 132Q676 165 688 191T722 237T772 267T832 278Q863 278 891 268T941 238T975 192T988 132Q988 99 976 73T942 27T892 -3T832 -14ZM465 -14Q433 -14 405 -4T356 26T322 72T309 132Q309 165 321 191T355 237T405 267T465 278Q496 278 524 268T574 238T608 192T621 132Q621 99 609 73T575 27T525 -3T465 -14ZM832 0Q858 0 872 11T893 40T901 82T902 132Q902 158 901 182T894 224T873 253T832 264Q806 264 792 253T771 224T763 182T762 132Q762 106 763 82T770 40T791 11T832 0ZM465 0Q491 0 505 11T526 40T534 82T535 132Q535 158 534 182T527 224T506 253T465 264Q439 264 425 253T404 224T396 182T395 132Q395 106 396 82T403 40T424 11T465 0Z"  />
<glyph unicode="&#x2039;" horiz-adv-x="259" d="M216 344Q202 340 188 335T163 316T144 279T137 215Q137 179 142 156T158 119T182 98T216 86L213 74Q192 78 163 86T107 110T62 151T43 215Q43 254 62 279T109 320T165 344T213 356L216 344Z"  />
<glyph unicode="&#x203A;" horiz-adv-x="259" d="M43 86Q57 90 71 95T96 114T115 150T122 215Q122 251 117 274T101 311T77 332T43 344L46 356Q67 351 96 343T152 320T197 279T216 215Q216 176 197 151T150 110T94 86T46 74L43 86Z"  />
<glyph unicode="&#x20AC;" horiz-adv-x="556" d="M491 518H478Q474 538 468 557T454 596Q448 610 442 623T427 649Q418 663 408 675T383 696Q354 714 317 714Q288 714 267 699Q254 690 246 676T231 647Q221 622 216 598T206 547Q202 521 200 494T199 440H420L415 423H199V407Q199 392 199 384T199 367T198 348T198 318H385L380 301H198Q197 274 199 241T206 173T219 107T240 53Q253 30 271 15T320 -1Q341 -1 358 6T388 24T413 48T432 75Q467 132 481 202H497V0H481Q476 12 471 15T461 20Q458 21 452 21Q444 21 434 18T413 10Q387 -1 367 -8T319 -15Q281 -15 242 2T169 54Q142 83 124 118T92 190Q74 245 68 301H1L9 318H66Q66 321 66 324T65 331Q64 343 64 355T63 379Q63 391 63 401T66 423H1L9 440H69Q73 466 79 491T95 540Q106 569 122 596T159 646Q198 690 240 709T319 728Q337 728 359 723Q373 719 383 715T406 704L421 697Q430 693 434 692T446 691Q450 691 454 691T462 693Q466 695 470 699T475 712H491V518Z"  />
<glyph unicode="&#x2122;" horiz-adv-x="981" d="M474 701H426V712H569L664 447L760 712H898V701H850V333H898V322H718V333H766V690L632 322H621L487 690V333H535V322H426V333H474V701ZM185 701Q168 701 151 700T119 689T90 661T69 608H58V712H396V608H385Q377 642 364 661T336 689T303 699T269 701V333H320V322H134V333H185V701Z"  />
<glyph unicode="&#xE000;" horiz-adv-x="278" d="M182 762H169L28 912Q22 919 21 927T19 939Q19 954 31 961T52 969Q72 969 80 959T94 938L182 762Z"  />
<glyph unicode="&#xE002;" horiz-adv-x="278" d="M184 938Q189 949 197 959T226 969Q234 969 246 962T259 939Q259 935 258 927T250 912L109 762H96L184 938Z"  />
<glyph unicode="&#xE004;" horiz-adv-x="278" d="M103 959H176L284 762H272L139 889L6 762H-6L103 959Z"  />
<glyph unicode="&#xE006;" horiz-adv-x="278" d="M175 762H102L-6 959H6L139 832L272 959H284L175 762Z"  />
<glyph unicode="&#xE009;" horiz-adv-x="278" d="M-3 802H-17Q-1 848 8 868T31 900Q40 908 55 913T82 918Q89 918 113 912T164 898T213 884T241 878Q251 878 258 884T271 899T278 914T281 924H295Q292 911 285 891T267 853T239 821T199 808Q184 808 162 814T115 828T70 842T37 849Q30 849 22 845T9 829L-3 802Z"  />
<glyph unicode="&#xE00B;" horiz-adv-x="278" d="M162 877Q162 903 181 922T226 941Q252 941 271 922T290 877Q290 851 271 832T226 813Q200 813 181 832T162 877ZM-12 877Q-12 903 7 922T52 941Q78 941 97 922T116 877Q116 851 97 832T52 813Q26 813 7 832T-12 877Z"  />
<glyph unicode="&#xE011;" horiz-adv-x="278" d="M244 857Q244 841 238 824T218 792T186 768T139 758Q112 758 93 767T60 791T41 823T34 857Q34 873 40 890T60 922T92 946T139 956Q166 956 185 947T218 923T237 891T244 857ZM139 945Q110 945 101 922T92 857Q92 815 101 792T139 769Q168 769 177 792T186 857Q186 899 177 922T139 945Z"  />

</font>
</defs>
</svg>
